<?xml version="1.0" encoding="utf-8" standalone="no"?>
<!DOCTYPE svg PUBLIC "-//W3C//DTD SVG 1.1//EN"
  "http://www.w3.org/Graphics/SVG/1.1/DTD/svg11.dtd">
<svg height="345.6pt" version="1.1" viewBox="0 0 460.8 345.6" width="460.8pt" xmlns="http://www.w3.org/2000/svg" xmlns:xlink="http://www.w3.org/1999/xlink">
 <metadata>
  <rdf:RDF xmlns:cc="http://creativecommons.org/ns#" xmlns:dc="http://purl.org/dc/elements/1.1/" xmlns:rdf="http://www.w3.org/1999/02/22-rdf-syntax-ns#">
   <cc:Work>
    <dc:type rdf:resource="http://purl.org/dc/dcmitype/StillImage"/>
    <dc:date>2021-09-26T18:36:31.198181</dc:date>
    <dc:format>image/svg+xml</dc:format>
    <dc:creator>
     <cc:Agent>
      <dc:title>Matplotlib v3.4.3, https://matplotlib.org/</dc:title>
     </cc:Agent>
    </dc:creator>
   </cc:Work>
  </rdf:RDF>
 </metadata>
 <defs>
  <style type="text/css">*{stroke-linecap:butt;stroke-linejoin:round;}</style>
 </defs>
 <g id="figure_1">
  <g id="patch_1">
   <path d="M 0 345.6 
L 460.8 345.6 
L 460.8 0 
L 0 0 
z
" style="fill:#ffffff;"/>
  </g>
  <g id="axes_1">
   <g id="patch_2">
    <path d="M 57.6 307.584 
L 414.72 307.584 
L 414.72 41.472 
L 57.6 41.472 
z
" style="fill:#ffffff;"/>
   </g>
   <g id="patch_3">
    <path clip-path="url(#p114e88de8f)" d="M 57.6 307.584 
L 58.995 307.584 
L 58.995 307.584 
L 57.6 307.584 
z
" style="fill:#1f77b4;"/>
   </g>
   <g id="patch_4">
    <path clip-path="url(#p114e88de8f)" d="M 58.995 307.584 
L 60.39 307.584 
L 60.39 307.492762 
L 58.995 307.492762 
z
" style="fill:#1f77b4;"/>
   </g>
   <g id="patch_5">
    <path clip-path="url(#p114e88de8f)" d="M 60.39 307.584 
L 61.785 307.584 
L 61.785 306.835851 
L 60.39 306.835851 
z
" style="fill:#1f77b4;"/>
   </g>
   <g id="patch_6">
    <path clip-path="url(#p114e88de8f)" d="M 61.785 307.584 
L 63.18 307.584 
L 63.18 307.164307 
L 61.785 307.164307 
z
" style="fill:#1f77b4;"/>
   </g>
   <g id="patch_7">
    <path clip-path="url(#p114e88de8f)" d="M 63.18 307.584 
L 64.575 307.584 
L 64.575 306.981831 
L 63.18 306.981831 
z
" style="fill:#1f77b4;"/>
   </g>
   <g id="patch_8">
    <path clip-path="url(#p114e88de8f)" d="M 64.575 307.584 
L 65.97 307.584 
L 65.97 306.744613 
L 64.575 306.744613 
z
" style="fill:#1f77b4;"/>
   </g>
   <g id="patch_9">
    <path clip-path="url(#p114e88de8f)" d="M 65.97 307.584 
L 67.365 307.584 
L 67.365 306.708118 
L 65.97 306.708118 
z
" style="fill:#1f77b4;"/>
   </g>
   <g id="patch_10">
    <path clip-path="url(#p114e88de8f)" d="M 67.365 307.584 
L 68.76 307.584 
L 68.76 306.25193 
L 67.365 306.25193 
z
" style="fill:#1f77b4;"/>
   </g>
   <g id="patch_11">
    <path clip-path="url(#p114e88de8f)" d="M 68.76 307.584 
L 70.155 307.584 
L 70.155 305.759247 
L 68.76 305.759247 
z
" style="fill:#1f77b4;"/>
   </g>
   <g id="patch_12">
    <path clip-path="url(#p114e88de8f)" d="M 70.155 307.584 
L 71.55 307.584 
L 71.55 305.248316 
L 70.155 305.248316 
z
" style="fill:#1f77b4;"/>
   </g>
   <g id="patch_13">
    <path clip-path="url(#p114e88de8f)" d="M 71.55 307.584 
L 72.945 307.584 
L 72.945 305.011098 
L 71.55 305.011098 
z
" style="fill:#1f77b4;"/>
   </g>
   <g id="patch_14">
    <path clip-path="url(#p114e88de8f)" d="M 72.945 307.584 
L 74.34 307.584 
L 74.34 304.153464 
L 72.945 304.153464 
z
" style="fill:#1f77b4;"/>
   </g>
   <g id="patch_15">
    <path clip-path="url(#p114e88de8f)" d="M 74.34 307.584 
L 75.735 307.584 
L 75.735 303.752018 
L 74.34 303.752018 
z
" style="fill:#1f77b4;"/>
   </g>
   <g id="patch_16">
    <path clip-path="url(#p114e88de8f)" d="M 75.735 307.584 
L 77.13 307.584 
L 77.13 302.47469 
L 75.735 302.47469 
z
" style="fill:#1f77b4;"/>
   </g>
   <g id="patch_17">
    <path clip-path="url(#p114e88de8f)" d="M 77.13 307.584 
L 78.525 307.584 
L 78.525 301.690047 
L 77.13 301.690047 
z
" style="fill:#1f77b4;"/>
   </g>
   <g id="patch_18">
    <path clip-path="url(#p114e88de8f)" d="M 78.525 307.584 
L 79.92 307.584 
L 79.92 298.606213 
L 78.525 298.606213 
z
" style="fill:#1f77b4;"/>
   </g>
   <g id="patch_19">
    <path clip-path="url(#p114e88de8f)" d="M 79.92 307.584 
L 81.315 307.584 
L 81.315 294.737736 
L 79.92 294.737736 
z
" style="fill:#1f77b4;"/>
   </g>
   <g id="patch_20">
    <path clip-path="url(#p114e88de8f)" d="M 81.315 307.584 
L 82.71 307.584 
L 82.71 288.369347 
L 81.315 288.369347 
z
" style="fill:#1f77b4;"/>
   </g>
   <g id="patch_21">
    <path clip-path="url(#p114e88de8f)" d="M 82.71 307.584 
L 84.105 307.584 
L 84.105 277.548559 
L 82.71 277.548559 
z
" style="fill:#1f77b4;"/>
   </g>
   <g id="patch_22">
    <path clip-path="url(#p114e88de8f)" d="M 84.105 307.584 
L 85.5 307.584 
L 85.5 261.892175 
L 84.105 261.892175 
z
" style="fill:#1f77b4;"/>
   </g>
   <g id="patch_23">
    <path clip-path="url(#p114e88de8f)" d="M 85.5 307.584 
L 86.895 307.584 
L 86.895 240.378332 
L 85.5 240.378332 
z
" style="fill:#1f77b4;"/>
   </g>
   <g id="patch_24">
    <path clip-path="url(#p114e88de8f)" d="M 86.895 307.584 
L 88.29 307.584 
L 88.29 215.853646 
L 86.895 215.853646 
z
" style="fill:#1f77b4;"/>
   </g>
   <g id="patch_25">
    <path clip-path="url(#p114e88de8f)" d="M 88.29 307.584 
L 89.685 307.584 
L 89.685 197.058686 
L 88.29 197.058686 
z
" style="fill:#1f77b4;"/>
   </g>
   <g id="patch_26">
    <path clip-path="url(#p114e88de8f)" d="M 89.685 307.584 
L 91.08 307.584 
L 91.08 174.83319 
L 89.685 174.83319 
z
" style="fill:#1f77b4;"/>
   </g>
   <g id="patch_27">
    <path clip-path="url(#p114e88de8f)" d="M 91.08 307.584 
L 92.475 307.584 
L 92.475 157.862983 
L 91.08 157.862983 
z
" style="fill:#1f77b4;"/>
   </g>
   <g id="patch_28">
    <path clip-path="url(#p114e88de8f)" d="M 92.475 307.584 
L 93.87 307.584 
L 93.87 137.115537 
L 92.475 137.115537 
z
" style="fill:#1f77b4;"/>
   </g>
   <g id="patch_29">
    <path clip-path="url(#p114e88de8f)" d="M 93.87 307.584 
L 95.265 307.584 
L 95.265 121.623381 
L 93.87 121.623381 
z
" style="fill:#1f77b4;"/>
   </g>
   <g id="patch_30">
    <path clip-path="url(#p114e88de8f)" d="M 95.265 307.584 
L 96.66 307.584 
L 96.66 108.430414 
L 95.265 108.430414 
z
" style="fill:#1f77b4;"/>
   </g>
   <g id="patch_31">
    <path clip-path="url(#p114e88de8f)" d="M 96.66 307.584 
L 98.055 307.584 
L 98.055 94.854248 
L 96.66 94.854248 
z
" style="fill:#1f77b4;"/>
   </g>
   <g id="patch_32">
    <path clip-path="url(#p114e88de8f)" d="M 98.055 307.584 
L 99.45 307.584 
L 99.45 86.442135 
L 98.055 86.442135 
z
" style="fill:#1f77b4;"/>
   </g>
   <g id="patch_33">
    <path clip-path="url(#p114e88de8f)" d="M 99.45 307.584 
L 100.845 307.584 
L 100.845 72.336791 
L 99.45 72.336791 
z
" style="fill:#1f77b4;"/>
   </g>
   <g id="patch_34">
    <path clip-path="url(#p114e88de8f)" d="M 100.845 307.584 
L 102.24 307.584 
L 102.24 61.953945 
L 100.845 61.953945 
z
" style="fill:#1f77b4;"/>
   </g>
   <g id="patch_35">
    <path clip-path="url(#p114e88de8f)" d="M 102.24 307.584 
L 103.635 307.584 
L 103.635 57.136596 
L 102.24 57.136596 
z
" style="fill:#1f77b4;"/>
   </g>
   <g id="patch_36">
    <path clip-path="url(#p114e88de8f)" d="M 103.635 307.584 
L 105.03 307.584 
L 105.03 58.413923 
L 103.635 58.413923 
z
" style="fill:#1f77b4;"/>
   </g>
   <g id="patch_37">
    <path clip-path="url(#p114e88de8f)" d="M 105.03 307.584 
L 106.425 307.584 
L 106.425 54.144 
L 105.03 54.144 
z
" style="fill:#1f77b4;"/>
   </g>
   <g id="patch_38">
    <path clip-path="url(#p114e88de8f)" d="M 106.425 307.584 
L 107.82 307.584 
L 107.82 68.048621 
L 106.425 68.048621 
z
" style="fill:#1f77b4;"/>
   </g>
   <g id="patch_39">
    <path clip-path="url(#p114e88de8f)" d="M 107.82 307.584 
L 109.215 307.584 
L 109.215 68.760275 
L 107.82 68.760275 
z
" style="fill:#1f77b4;"/>
   </g>
   <g id="patch_40">
    <path clip-path="url(#p114e88de8f)" d="M 109.215 307.584 
L 110.61 307.584 
L 110.61 69.16172 
L 109.215 69.16172 
z
" style="fill:#1f77b4;"/>
   </g>
   <g id="patch_41">
    <path clip-path="url(#p114e88de8f)" d="M 110.61 307.584 
L 112.005 307.584 
L 112.005 76.989913 
L 110.61 76.989913 
z
" style="fill:#1f77b4;"/>
   </g>
   <g id="patch_42">
    <path clip-path="url(#p114e88de8f)" d="M 112.005 307.584 
L 113.4 307.584 
L 113.4 83.540777 
L 112.005 83.540777 
z
" style="fill:#1f77b4;"/>
   </g>
   <g id="patch_43">
    <path clip-path="url(#p114e88de8f)" d="M 113.4 307.584 
L 114.795 307.584 
L 114.795 90.894534 
L 113.4 90.894534 
z
" style="fill:#1f77b4;"/>
   </g>
   <g id="patch_44">
    <path clip-path="url(#p114e88de8f)" d="M 114.795 307.584 
L 116.19 307.584 
L 116.19 103.029144 
L 114.795 103.029144 
z
" style="fill:#1f77b4;"/>
   </g>
   <g id="patch_45">
    <path clip-path="url(#p114e88de8f)" d="M 116.19 307.584 
L 117.585 307.584 
L 117.585 109.744236 
L 116.19 109.744236 
z
" style="fill:#1f77b4;"/>
   </g>
   <g id="patch_46">
    <path clip-path="url(#p114e88de8f)" d="M 117.585 307.584 
L 118.98 307.584 
L 118.98 117.736656 
L 117.585 117.736656 
z
" style="fill:#1f77b4;"/>
   </g>
   <g id="patch_47">
    <path clip-path="url(#p114e88de8f)" d="M 118.98 307.584 
L 120.375 307.584 
L 120.375 122.280292 
L 118.98 122.280292 
z
" style="fill:#1f77b4;"/>
   </g>
   <g id="patch_48">
    <path clip-path="url(#p114e88de8f)" d="M 120.375 307.584 
L 121.77 307.584 
L 121.77 133.630258 
L 120.375 133.630258 
z
" style="fill:#1f77b4;"/>
   </g>
   <g id="patch_49">
    <path clip-path="url(#p114e88de8f)" d="M 121.77 307.584 
L 123.165 307.584 
L 123.165 136.221408 
L 121.77 136.221408 
z
" style="fill:#1f77b4;"/>
   </g>
   <g id="patch_50">
    <path clip-path="url(#p114e88de8f)" d="M 123.165 307.584 
L 124.56 307.584 
L 124.56 145.746621 
L 123.165 145.746621 
z
" style="fill:#1f77b4;"/>
   </g>
   <g id="patch_51">
    <path clip-path="url(#p114e88de8f)" d="M 124.56 307.584 
L 125.955 307.584 
L 125.955 151.038406 
L 124.56 151.038406 
z
" style="fill:#1f77b4;"/>
   </g>
   <g id="patch_52">
    <path clip-path="url(#p114e88de8f)" d="M 125.955 307.584 
L 127.35 307.584 
L 127.35 157.096587 
L 125.955 157.096587 
z
" style="fill:#1f77b4;"/>
   </g>
   <g id="patch_53">
    <path clip-path="url(#p114e88de8f)" d="M 127.35 307.584 
L 128.745 307.584 
L 128.745 158.793608 
L 127.35 158.793608 
z
" style="fill:#1f77b4;"/>
   </g>
   <g id="patch_54">
    <path clip-path="url(#p114e88de8f)" d="M 128.745 307.584 
L 130.14 307.584 
L 130.14 163.045283 
L 128.745 163.045283 
z
" style="fill:#1f77b4;"/>
   </g>
   <g id="patch_55">
    <path clip-path="url(#p114e88de8f)" d="M 130.14 307.584 
L 131.535 307.584 
L 131.535 160.654856 
L 130.14 160.654856 
z
" style="fill:#1f77b4;"/>
   </g>
   <g id="patch_56">
    <path clip-path="url(#p114e88de8f)" d="M 131.535 307.584 
L 132.93 307.584 
L 132.93 165.946641 
L 131.535 165.946641 
z
" style="fill:#1f77b4;"/>
   </g>
   <g id="patch_57">
    <path clip-path="url(#p114e88de8f)" d="M 132.93 307.584 
L 134.325 307.584 
L 134.325 165.034264 
L 132.93 165.034264 
z
" style="fill:#1f77b4;"/>
   </g>
   <g id="patch_58">
    <path clip-path="url(#p114e88de8f)" d="M 134.325 307.584 
L 135.72 307.584 
L 135.72 172.734724 
L 134.325 172.734724 
z
" style="fill:#1f77b4;"/>
   </g>
   <g id="patch_59">
    <path clip-path="url(#p114e88de8f)" d="M 135.72 307.584 
L 137.115 307.584 
L 137.115 165.472205 
L 135.72 165.472205 
z
" style="fill:#1f77b4;"/>
   </g>
   <g id="patch_60">
    <path clip-path="url(#p114e88de8f)" d="M 137.115 307.584 
L 138.51 307.584 
L 138.51 142.71753 
L 137.115 142.71753 
z
" style="fill:#1f77b4;"/>
   </g>
   <g id="patch_61">
    <path clip-path="url(#p114e88de8f)" d="M 138.51 307.584 
L 139.905 307.584 
L 139.905 143.118976 
L 138.51 143.118976 
z
" style="fill:#1f77b4;"/>
   </g>
   <g id="patch_62">
    <path clip-path="url(#p114e88de8f)" d="M 139.905 307.584 
L 141.3 307.584 
L 141.3 174.468239 
L 139.905 174.468239 
z
" style="fill:#1f77b4;"/>
   </g>
   <g id="patch_63">
    <path clip-path="url(#p114e88de8f)" d="M 141.3 307.584 
L 142.695 307.584 
L 142.695 192.496803 
L 141.3 192.496803 
z
" style="fill:#1f77b4;"/>
   </g>
   <g id="patch_64">
    <path clip-path="url(#p114e88de8f)" d="M 142.695 307.584 
L 144.09 307.584 
L 144.09 198.153538 
L 142.695 198.153538 
z
" style="fill:#1f77b4;"/>
   </g>
   <g id="patch_65">
    <path clip-path="url(#p114e88de8f)" d="M 144.09 307.584 
L 145.485 307.584 
L 145.485 197.606112 
L 144.09 197.606112 
z
" style="fill:#1f77b4;"/>
   </g>
   <g id="patch_66">
    <path clip-path="url(#p114e88de8f)" d="M 145.485 307.584 
L 146.88 307.584 
L 146.88 197.69735 
L 145.485 197.69735 
z
" style="fill:#1f77b4;"/>
   </g>
   <g id="patch_67">
    <path clip-path="url(#p114e88de8f)" d="M 146.88 307.584 
L 148.275 307.584 
L 148.275 203.938007 
L 146.88 203.938007 
z
" style="fill:#1f77b4;"/>
   </g>
   <g id="patch_68">
    <path clip-path="url(#p114e88de8f)" d="M 148.275 307.584 
L 149.67 307.584 
L 149.67 204.448938 
L 148.275 204.448938 
z
" style="fill:#1f77b4;"/>
   </g>
   <g id="patch_69">
    <path clip-path="url(#p114e88de8f)" d="M 149.67 307.584 
L 151.065 307.584 
L 151.065 206.656889 
L 149.67 206.656889 
z
" style="fill:#1f77b4;"/>
   </g>
   <g id="patch_70">
    <path clip-path="url(#p114e88de8f)" d="M 151.065 307.584 
L 152.46 307.584 
L 152.46 207.624009 
L 151.065 207.624009 
z
" style="fill:#1f77b4;"/>
   </g>
   <g id="patch_71">
    <path clip-path="url(#p114e88de8f)" d="M 152.46 307.584 
L 153.855 307.584 
L 153.855 201.748303 
L 152.46 201.748303 
z
" style="fill:#1f77b4;"/>
   </g>
   <g id="patch_72">
    <path clip-path="url(#p114e88de8f)" d="M 153.855 307.584 
L 155.25 307.584 
L 155.25 197.40539 
L 153.855 197.40539 
z
" style="fill:#1f77b4;"/>
   </g>
   <g id="patch_73">
    <path clip-path="url(#p114e88de8f)" d="M 155.25 307.584 
L 156.645 307.584 
L 156.645 192.241337 
L 155.25 192.241337 
z
" style="fill:#1f77b4;"/>
   </g>
   <g id="patch_74">
    <path clip-path="url(#p114e88de8f)" d="M 156.645 307.584 
L 158.04 307.584 
L 158.04 193.40918 
L 156.645 193.40918 
z
" style="fill:#1f77b4;"/>
   </g>
   <g id="patch_75">
    <path clip-path="url(#p114e88de8f)" d="M 158.04 307.584 
L 159.435 307.584 
L 159.435 190.945763 
L 158.04 190.945763 
z
" style="fill:#1f77b4;"/>
   </g>
   <g id="patch_76">
    <path clip-path="url(#p114e88de8f)" d="M 159.435 307.584 
L 160.83 307.584 
L 160.83 188.464098 
L 159.435 188.464098 
z
" style="fill:#1f77b4;"/>
   </g>
   <g id="patch_77">
    <path clip-path="url(#p114e88de8f)" d="M 160.83 307.584 
L 162.225 307.584 
L 162.225 187.588216 
L 160.83 187.588216 
z
" style="fill:#1f77b4;"/>
   </g>
   <g id="patch_78">
    <path clip-path="url(#p114e88de8f)" d="M 162.225 307.584 
L 163.62 307.584 
L 163.62 183.026333 
L 162.225 183.026333 
z
" style="fill:#1f77b4;"/>
   </g>
   <g id="patch_79">
    <path clip-path="url(#p114e88de8f)" d="M 163.62 307.584 
L 165.015 307.584 
L 165.015 179.814767 
L 163.62 179.814767 
z
" style="fill:#1f77b4;"/>
   </g>
   <g id="patch_80">
    <path clip-path="url(#p114e88de8f)" d="M 165.015 307.584 
L 166.41 307.584 
L 166.41 178.409707 
L 165.015 178.409707 
z
" style="fill:#1f77b4;"/>
   </g>
   <g id="patch_81">
    <path clip-path="url(#p114e88de8f)" d="M 166.41 307.584 
L 167.805 307.584 
L 167.805 176.822171 
L 166.41 176.822171 
z
" style="fill:#1f77b4;"/>
   </g>
   <g id="patch_82">
    <path clip-path="url(#p114e88de8f)" d="M 167.805 307.584 
L 169.2 307.584 
L 169.2 178.847647 
L 167.805 178.847647 
z
" style="fill:#1f77b4;"/>
   </g>
   <g id="patch_83">
    <path clip-path="url(#p114e88de8f)" d="M 169.2 307.584 
L 170.595 307.584 
L 170.595 179.978995 
L 169.2 179.978995 
z
" style="fill:#1f77b4;"/>
   </g>
   <g id="patch_84">
    <path clip-path="url(#p114e88de8f)" d="M 170.595 307.584 
L 171.99 307.584 
L 171.99 179.924252 
L 170.595 179.924252 
z
" style="fill:#1f77b4;"/>
   </g>
   <g id="patch_85">
    <path clip-path="url(#p114e88de8f)" d="M 171.99 307.584 
L 173.385 307.584 
L 173.385 180.416935 
L 171.99 180.416935 
z
" style="fill:#1f77b4;"/>
   </g>
   <g id="patch_86">
    <path clip-path="url(#p114e88de8f)" d="M 173.385 307.584 
L 174.78 307.584 
L 174.78 177.64331 
L 173.385 177.64331 
z
" style="fill:#1f77b4;"/>
   </g>
   <g id="patch_87">
    <path clip-path="url(#p114e88de8f)" d="M 174.78 307.584 
L 176.175 307.584 
L 176.175 179.960747 
L 174.78 179.960747 
z
" style="fill:#1f77b4;"/>
   </g>
   <g id="patch_88">
    <path clip-path="url(#p114e88de8f)" d="M 176.175 307.584 
L 177.57 307.584 
L 177.57 182.624887 
L 176.175 182.624887 
z
" style="fill:#1f77b4;"/>
   </g>
   <g id="patch_89">
    <path clip-path="url(#p114e88de8f)" d="M 177.57 307.584 
L 178.965 307.584 
L 178.965 182.059213 
L 177.57 182.059213 
z
" style="fill:#1f77b4;"/>
   </g>
   <g id="patch_90">
    <path clip-path="url(#p114e88de8f)" d="M 178.965 307.584 
L 180.36 307.584 
L 180.36 185.051809 
L 178.965 185.051809 
z
" style="fill:#1f77b4;"/>
   </g>
   <g id="patch_91">
    <path clip-path="url(#p114e88de8f)" d="M 180.36 307.584 
L 181.755 307.584 
L 181.755 186.420374 
L 180.36 186.420374 
z
" style="fill:#1f77b4;"/>
   </g>
   <g id="patch_92">
    <path clip-path="url(#p114e88de8f)" d="M 181.755 307.584 
L 183.15 307.584 
L 183.15 184.577373 
L 181.755 184.577373 
z
" style="fill:#1f77b4;"/>
   </g>
   <g id="patch_93">
    <path clip-path="url(#p114e88de8f)" d="M 183.15 307.584 
L 184.545 307.584 
L 184.545 179.833014 
L 183.15 179.833014 
z
" style="fill:#1f77b4;"/>
   </g>
   <g id="patch_94">
    <path clip-path="url(#p114e88de8f)" d="M 184.545 307.584 
L 185.94 307.584 
L 185.94 180.818381 
L 184.545 180.818381 
z
" style="fill:#1f77b4;"/>
   </g>
   <g id="patch_95">
    <path clip-path="url(#p114e88de8f)" d="M 185.94 307.584 
L 187.335 307.584 
L 187.335 186.329136 
L 185.94 186.329136 
z
" style="fill:#1f77b4;"/>
   </g>
   <g id="patch_96">
    <path clip-path="url(#p114e88de8f)" d="M 187.335 307.584 
L 188.73 307.584 
L 188.73 183.172313 
L 187.335 183.172313 
z
" style="fill:#1f77b4;"/>
   </g>
   <g id="patch_97">
    <path clip-path="url(#p114e88de8f)" d="M 188.73 307.584 
L 190.125 307.584 
L 190.125 187.186771 
L 188.73 187.186771 
z
" style="fill:#1f77b4;"/>
   </g>
   <g id="patch_98">
    <path clip-path="url(#p114e88de8f)" d="M 190.125 307.584 
L 191.52 307.584 
L 191.52 183.464274 
L 190.125 183.464274 
z
" style="fill:#1f77b4;"/>
   </g>
   <g id="patch_99">
    <path clip-path="url(#p114e88de8f)" d="M 191.52 307.584 
L 192.915 307.584 
L 192.915 166.530562 
L 191.52 166.530562 
z
" style="fill:#1f77b4;"/>
   </g>
   <g id="patch_100">
    <path clip-path="url(#p114e88de8f)" d="M 192.915 307.584 
L 194.31 307.584 
L 194.31 152.808416 
L 192.915 152.808416 
z
" style="fill:#1f77b4;"/>
   </g>
   <g id="patch_101">
    <path clip-path="url(#p114e88de8f)" d="M 194.31 307.584 
L 195.705 307.584 
L 195.705 152.060268 
L 194.31 152.060268 
z
" style="fill:#1f77b4;"/>
   </g>
   <g id="patch_102">
    <path clip-path="url(#p114e88de8f)" d="M 195.705 307.584 
L 197.1 307.584 
L 197.1 151.038406 
L 195.705 151.038406 
z
" style="fill:#1f77b4;"/>
   </g>
   <g id="patch_103">
    <path clip-path="url(#p114e88de8f)" d="M 197.1 307.584 
L 198.495 307.584 
L 198.495 156.403181 
L 197.1 156.403181 
z
" style="fill:#1f77b4;"/>
   </g>
   <g id="patch_104">
    <path clip-path="url(#p114e88de8f)" d="M 198.495 307.584 
L 199.89 307.584 
L 199.89 157.862983 
L 198.495 157.862983 
z
" style="fill:#1f77b4;"/>
   </g>
   <g id="patch_105">
    <path clip-path="url(#p114e88de8f)" d="M 199.89 307.584 
L 201.285 307.584 
L 201.285 156.622151 
L 199.89 156.622151 
z
" style="fill:#1f77b4;"/>
   </g>
   <g id="patch_106">
    <path clip-path="url(#p114e88de8f)" d="M 201.285 307.584 
L 202.68 307.584 
L 202.68 157.388547 
L 201.285 157.388547 
z
" style="fill:#1f77b4;"/>
   </g>
   <g id="patch_107">
    <path clip-path="url(#p114e88de8f)" d="M 202.68 307.584 
L 204.075 307.584 
L 204.075 158.063706 
L 202.68 158.063706 
z
" style="fill:#1f77b4;"/>
   </g>
   <g id="patch_108">
    <path clip-path="url(#p114e88de8f)" d="M 204.075 307.584 
L 205.47 307.584 
L 205.47 159.268043 
L 204.075 159.268043 
z
" style="fill:#1f77b4;"/>
   </g>
   <g id="patch_109">
    <path clip-path="url(#p114e88de8f)" d="M 205.47 307.584 
L 206.865 307.584 
L 206.865 155.946992 
L 205.47 155.946992 
z
" style="fill:#1f77b4;"/>
   </g>
   <g id="patch_110">
    <path clip-path="url(#p114e88de8f)" d="M 206.865 307.584 
L 208.26 307.584 
L 208.26 165.709423 
L 206.865 165.709423 
z
" style="fill:#1f77b4;"/>
   </g>
   <g id="patch_111">
    <path clip-path="url(#p114e88de8f)" d="M 208.26 307.584 
L 209.655 307.584 
L 209.655 170.161821 
L 208.26 170.161821 
z
" style="fill:#1f77b4;"/>
   </g>
   <g id="patch_112">
    <path clip-path="url(#p114e88de8f)" d="M 209.655 307.584 
L 211.05 307.584 
L 211.05 172.059565 
L 209.655 172.059565 
z
" style="fill:#1f77b4;"/>
   </g>
   <g id="patch_113">
    <path clip-path="url(#p114e88de8f)" d="M 211.05 307.584 
L 212.445 307.584 
L 212.445 172.041317 
L 211.05 172.041317 
z
" style="fill:#1f77b4;"/>
   </g>
   <g id="patch_114">
    <path clip-path="url(#p114e88de8f)" d="M 212.445 307.584 
L 213.84 307.584 
L 213.84 175.344121 
L 212.445 175.344121 
z
" style="fill:#1f77b4;"/>
   </g>
   <g id="patch_115">
    <path clip-path="url(#p114e88de8f)" d="M 213.84 307.584 
L 215.235 307.584 
L 215.235 180.635906 
L 213.84 180.635906 
z
" style="fill:#1f77b4;"/>
   </g>
   <g id="patch_116">
    <path clip-path="url(#p114e88de8f)" d="M 215.235 307.584 
L 216.63 307.584 
L 216.63 180.070232 
L 215.235 180.070232 
z
" style="fill:#1f77b4;"/>
   </g>
   <g id="patch_117">
    <path clip-path="url(#p114e88de8f)" d="M 216.63 307.584 
L 218.025 307.584 
L 218.025 177.150627 
L 216.63 177.150627 
z
" style="fill:#1f77b4;"/>
   </g>
   <g id="patch_118">
    <path clip-path="url(#p114e88de8f)" d="M 218.025 307.584 
L 219.42 307.584 
L 219.42 180.708896 
L 218.025 180.708896 
z
" style="fill:#1f77b4;"/>
   </g>
   <g id="patch_119">
    <path clip-path="url(#p114e88de8f)" d="M 219.42 307.584 
L 220.815 307.584 
L 220.815 178.68342 
L 219.42 178.68342 
z
" style="fill:#1f77b4;"/>
   </g>
   <g id="patch_120">
    <path clip-path="url(#p114e88de8f)" d="M 220.815 307.584 
L 222.21 307.584 
L 222.21 175.818557 
L 220.815 175.818557 
z
" style="fill:#1f77b4;"/>
   </g>
   <g id="patch_121">
    <path clip-path="url(#p114e88de8f)" d="M 222.21 307.584 
L 223.605 307.584 
L 223.605 176.858666 
L 222.21 176.858666 
z
" style="fill:#1f77b4;"/>
   </g>
   <g id="patch_122">
    <path clip-path="url(#p114e88de8f)" d="M 223.605 307.584 
L 225 307.584 
L 225 176.329488 
L 223.605 176.329488 
z
" style="fill:#1f77b4;"/>
   </g>
   <g id="patch_123">
    <path clip-path="url(#p114e88de8f)" d="M 225 307.584 
L 226.395 307.584 
L 226.395 179.595796 
L 225 179.595796 
z
" style="fill:#1f77b4;"/>
   </g>
   <g id="patch_124">
    <path clip-path="url(#p114e88de8f)" d="M 226.395 307.584 
L 227.79 307.584 
L 227.79 184.340155 
L 226.395 184.340155 
z
" style="fill:#1f77b4;"/>
   </g>
   <g id="patch_125">
    <path clip-path="url(#p114e88de8f)" d="M 227.79 307.584 
L 229.185 307.584 
L 229.185 184.905829 
L 227.79 184.905829 
z
" style="fill:#1f77b4;"/>
   </g>
   <g id="patch_126">
    <path clip-path="url(#p114e88de8f)" d="M 229.185 307.584 
L 230.58 307.584 
L 230.58 190.81803 
L 229.185 190.81803 
z
" style="fill:#1f77b4;"/>
   </g>
   <g id="patch_127">
    <path clip-path="url(#p114e88de8f)" d="M 230.58 307.584 
L 231.975 307.584 
L 231.975 190.252356 
L 230.58 190.252356 
z
" style="fill:#1f77b4;"/>
   </g>
   <g id="patch_128">
    <path clip-path="url(#p114e88de8f)" d="M 231.975 307.584 
L 233.37 307.584 
L 233.37 188.810801 
L 231.975 188.810801 
z
" style="fill:#1f77b4;"/>
   </g>
   <g id="patch_129">
    <path clip-path="url(#p114e88de8f)" d="M 233.37 307.584 
L 234.765 307.584 
L 234.765 198.226529 
L 233.37 198.226529 
z
" style="fill:#1f77b4;"/>
   </g>
   <g id="patch_130">
    <path clip-path="url(#p114e88de8f)" d="M 234.765 307.584 
L 236.16 307.584 
L 236.16 192.350823 
L 234.765 192.350823 
z
" style="fill:#1f77b4;"/>
   </g>
   <g id="patch_131">
    <path clip-path="url(#p114e88de8f)" d="M 236.16 307.584 
L 237.555 307.584 
L 237.555 193.445675 
L 236.16 193.445675 
z
" style="fill:#1f77b4;"/>
   </g>
   <g id="patch_132">
    <path clip-path="url(#p114e88de8f)" d="M 237.555 307.584 
L 238.95 307.584 
L 238.95 197.332399 
L 237.555 197.332399 
z
" style="fill:#1f77b4;"/>
   </g>
   <g id="patch_133">
    <path clip-path="url(#p114e88de8f)" d="M 238.95 307.584 
L 240.345 307.584 
L 240.345 198.135291 
L 238.95 198.135291 
z
" style="fill:#1f77b4;"/>
   </g>
   <g id="patch_134">
    <path clip-path="url(#p114e88de8f)" d="M 240.345 307.584 
L 241.74 307.584 
L 241.74 202.405214 
L 240.345 202.405214 
z
" style="fill:#1f77b4;"/>
   </g>
   <g id="patch_135">
    <path clip-path="url(#p114e88de8f)" d="M 241.74 307.584 
L 243.135 307.584 
L 243.135 206.255444 
L 241.74 206.255444 
z
" style="fill:#1f77b4;"/>
   </g>
   <g id="patch_136">
    <path clip-path="url(#p114e88de8f)" d="M 243.135 307.584 
L 244.53 307.584 
L 244.53 205.142344 
L 243.135 205.142344 
z
" style="fill:#1f77b4;"/>
   </g>
   <g id="patch_137">
    <path clip-path="url(#p114e88de8f)" d="M 244.53 307.584 
L 245.925 307.584 
L 245.925 205.4708 
L 244.53 205.4708 
z
" style="fill:#1f77b4;"/>
   </g>
   <g id="patch_138">
    <path clip-path="url(#p114e88de8f)" d="M 245.925 307.584 
L 247.32 307.584 
L 247.32 203.299343 
L 245.925 203.299343 
z
" style="fill:#1f77b4;"/>
   </g>
   <g id="patch_139">
    <path clip-path="url(#p114e88de8f)" d="M 247.32 307.584 
L 248.715 307.584 
L 248.715 201.073144 
L 247.32 201.073144 
z
" style="fill:#1f77b4;"/>
   </g>
   <g id="patch_140">
    <path clip-path="url(#p114e88de8f)" d="M 248.715 307.584 
L 250.11 307.584 
L 250.11 197.952816 
L 248.715 197.952816 
z
" style="fill:#1f77b4;"/>
   </g>
   <g id="patch_141">
    <path clip-path="url(#p114e88de8f)" d="M 250.11 307.584 
L 251.505 307.584 
L 251.505 194.996715 
L 250.11 194.996715 
z
" style="fill:#1f77b4;"/>
   </g>
   <g id="patch_142">
    <path clip-path="url(#p114e88de8f)" d="M 251.505 307.584 
L 252.9 307.584 
L 252.9 194.011348 
L 251.505 194.011348 
z
" style="fill:#1f77b4;"/>
   </g>
   <g id="patch_143">
    <path clip-path="url(#p114e88de8f)" d="M 252.9 307.584 
L 254.295 307.584 
L 254.295 199.065915 
L 252.9 199.065915 
z
" style="fill:#1f77b4;"/>
   </g>
   <g id="patch_144">
    <path clip-path="url(#p114e88de8f)" d="M 254.295 307.584 
L 255.69 307.584 
L 255.69 194.412794 
L 254.295 194.412794 
z
" style="fill:#1f77b4;"/>
   </g>
   <g id="patch_145">
    <path clip-path="url(#p114e88de8f)" d="M 255.69 307.584 
L 257.085 307.584 
L 257.085 196.821469 
L 255.69 196.821469 
z
" style="fill:#1f77b4;"/>
   </g>
   <g id="patch_146">
    <path clip-path="url(#p114e88de8f)" d="M 257.085 307.584 
L 258.48 307.584 
L 258.48 196.401775 
L 257.085 196.401775 
z
" style="fill:#1f77b4;"/>
   </g>
   <g id="patch_147">
    <path clip-path="url(#p114e88de8f)" d="M 258.48 307.584 
L 259.875 307.584 
L 259.875 197.350647 
L 258.48 197.350647 
z
" style="fill:#1f77b4;"/>
   </g>
   <g id="patch_148">
    <path clip-path="url(#p114e88de8f)" d="M 259.875 307.584 
L 261.27 307.584 
L 261.27 193.810625 
L 259.875 193.810625 
z
" style="fill:#1f77b4;"/>
   </g>
   <g id="patch_149">
    <path clip-path="url(#p114e88de8f)" d="M 261.27 307.584 
L 262.665 307.584 
L 262.665 191.420198 
L 261.27 191.420198 
z
" style="fill:#1f77b4;"/>
   </g>
   <g id="patch_150">
    <path clip-path="url(#p114e88de8f)" d="M 262.665 307.584 
L 264.06 307.584 
L 264.06 182.424164 
L 262.665 182.424164 
z
" style="fill:#1f77b4;"/>
   </g>
   <g id="patch_151">
    <path clip-path="url(#p114e88de8f)" d="M 264.06 307.584 
L 265.455 307.584 
L 265.455 182.770867 
L 264.06 182.770867 
z
" style="fill:#1f77b4;"/>
   </g>
   <g id="patch_152">
    <path clip-path="url(#p114e88de8f)" d="M 265.455 307.584 
L 266.85 307.584 
L 266.85 181.183332 
L 265.455 181.183332 
z
" style="fill:#1f77b4;"/>
   </g>
   <g id="patch_153">
    <path clip-path="url(#p114e88de8f)" d="M 266.85 307.584 
L 268.245 307.584 
L 268.245 183.446026 
L 266.85 183.446026 
z
" style="fill:#1f77b4;"/>
   </g>
   <g id="patch_154">
    <path clip-path="url(#p114e88de8f)" d="M 268.245 307.584 
L 269.64 307.584 
L 269.64 180.033737 
L 268.245 180.033737 
z
" style="fill:#1f77b4;"/>
   </g>
   <g id="patch_155">
    <path clip-path="url(#p114e88de8f)" d="M 269.64 307.584 
L 271.035 307.584 
L 271.035 176.420725 
L 269.64 176.420725 
z
" style="fill:#1f77b4;"/>
   </g>
   <g id="patch_156">
    <path clip-path="url(#p114e88de8f)" d="M 271.035 307.584 
L 272.43 307.584 
L 272.43 173.373387 
L 271.035 173.373387 
z
" style="fill:#1f77b4;"/>
   </g>
   <g id="patch_157">
    <path clip-path="url(#p114e88de8f)" d="M 272.43 307.584 
L 273.825 307.584 
L 273.825 173.555863 
L 272.43 173.555863 
z
" style="fill:#1f77b4;"/>
   </g>
   <g id="patch_158">
    <path clip-path="url(#p114e88de8f)" d="M 273.825 307.584 
L 275.22 307.584 
L 275.22 175.271131 
L 273.825 175.271131 
z
" style="fill:#1f77b4;"/>
   </g>
   <g id="patch_159">
    <path clip-path="url(#p114e88de8f)" d="M 275.22 307.584 
L 276.615 307.584 
L 276.615 170.98296 
L 275.22 170.98296 
z
" style="fill:#1f77b4;"/>
   </g>
   <g id="patch_160">
    <path clip-path="url(#p114e88de8f)" d="M 276.615 307.584 
L 278.01 307.584 
L 278.01 166.202106 
L 276.615 166.202106 
z
" style="fill:#1f77b4;"/>
   </g>
   <g id="patch_161">
    <path clip-path="url(#p114e88de8f)" d="M 278.01 307.584 
L 279.405 307.584 
L 279.405 161.019807 
L 278.01 161.019807 
z
" style="fill:#1f77b4;"/>
   </g>
   <g id="patch_162">
    <path clip-path="url(#p114e88de8f)" d="M 279.405 307.584 
L 280.8 307.584 
L 280.8 165.399215 
L 279.405 165.399215 
z
" style="fill:#1f77b4;"/>
   </g>
   <g id="patch_163">
    <path clip-path="url(#p114e88de8f)" d="M 280.8 307.584 
L 282.195 307.584 
L 282.195 161.330015 
L 280.8 161.330015 
z
" style="fill:#1f77b4;"/>
   </g>
   <g id="patch_164">
    <path clip-path="url(#p114e88de8f)" d="M 282.195 307.584 
L 283.59 307.584 
L 283.59 163.154768 
L 282.195 163.154768 
z
" style="fill:#1f77b4;"/>
   </g>
   <g id="patch_165">
    <path clip-path="url(#p114e88de8f)" d="M 283.59 307.584 
L 284.985 307.584 
L 284.985 156.056478 
L 283.59 156.056478 
z
" style="fill:#1f77b4;"/>
   </g>
   <g id="patch_166">
    <path clip-path="url(#p114e88de8f)" d="M 284.985 307.584 
L 286.38 307.584 
L 286.38 151.841297 
L 284.985 151.841297 
z
" style="fill:#1f77b4;"/>
   </g>
   <g id="patch_167">
    <path clip-path="url(#p114e88de8f)" d="M 286.38 307.584 
L 287.775 307.584 
L 287.775 151.056653 
L 286.38 151.056653 
z
" style="fill:#1f77b4;"/>
   </g>
   <g id="patch_168">
    <path clip-path="url(#p114e88de8f)" d="M 287.775 307.584 
L 289.17 307.584 
L 289.17 153.994506 
L 287.775 153.994506 
z
" style="fill:#1f77b4;"/>
   </g>
   <g id="patch_169">
    <path clip-path="url(#p114e88de8f)" d="M 289.17 307.584 
L 290.565 307.584 
L 290.565 143.794135 
L 289.17 143.794135 
z
" style="fill:#1f77b4;"/>
   </g>
   <g id="patch_170">
    <path clip-path="url(#p114e88de8f)" d="M 290.565 307.584 
L 291.96 307.584 
L 291.96 144.396303 
L 290.565 144.396303 
z
" style="fill:#1f77b4;"/>
   </g>
   <g id="patch_171">
    <path clip-path="url(#p114e88de8f)" d="M 291.96 307.584 
L 293.355 307.584 
L 293.355 134.323664 
L 291.96 134.323664 
z
" style="fill:#1f77b4;"/>
   </g>
   <g id="patch_172">
    <path clip-path="url(#p114e88de8f)" d="M 293.355 307.584 
L 294.75 307.584 
L 294.75 138.520597 
L 293.355 138.520597 
z
" style="fill:#1f77b4;"/>
   </g>
   <g id="patch_173">
    <path clip-path="url(#p114e88de8f)" d="M 294.75 307.584 
L 296.145 307.584 
L 296.145 148.210038 
L 294.75 148.210038 
z
" style="fill:#1f77b4;"/>
   </g>
   <g id="patch_174">
    <path clip-path="url(#p114e88de8f)" d="M 296.145 307.584 
L 297.54 307.584 
L 297.54 147.626117 
L 296.145 147.626117 
z
" style="fill:#1f77b4;"/>
   </g>
   <g id="patch_175">
    <path clip-path="url(#p114e88de8f)" d="M 297.54 307.584 
L 298.935 307.584 
L 298.935 142.316084 
L 297.54 142.316084 
z
" style="fill:#1f77b4;"/>
   </g>
   <g id="patch_176">
    <path clip-path="url(#p114e88de8f)" d="M 298.935 307.584 
L 300.33 307.584 
L 300.33 144.651769 
L 298.935 144.651769 
z
" style="fill:#1f77b4;"/>
   </g>
   <g id="patch_177">
    <path clip-path="url(#p114e88de8f)" d="M 300.33 307.584 
L 301.725 307.584 
L 301.725 142.735778 
L 300.33 142.735778 
z
" style="fill:#1f77b4;"/>
   </g>
   <g id="patch_178">
    <path clip-path="url(#p114e88de8f)" d="M 301.725 307.584 
L 303.12 307.584 
L 303.12 137.206775 
L 301.725 137.206775 
z
" style="fill:#1f77b4;"/>
   </g>
   <g id="patch_179">
    <path clip-path="url(#p114e88de8f)" d="M 303.12 307.584 
L 304.515 307.584 
L 304.515 148.812206 
L 303.12 148.812206 
z
" style="fill:#1f77b4;"/>
   </g>
   <g id="patch_180">
    <path clip-path="url(#p114e88de8f)" d="M 304.515 307.584 
L 305.91 307.584 
L 305.91 140.600816 
L 304.515 140.600816 
z
" style="fill:#1f77b4;"/>
   </g>
   <g id="patch_181">
    <path clip-path="url(#p114e88de8f)" d="M 305.91 307.584 
L 307.305 307.584 
L 307.305 131.568287 
L 305.91 131.568287 
z
" style="fill:#1f77b4;"/>
   </g>
   <g id="patch_182">
    <path clip-path="url(#p114e88de8f)" d="M 307.305 307.584 
L 308.7 307.584 
L 308.7 146.403532 
L 307.305 146.403532 
z
" style="fill:#1f77b4;"/>
   </g>
   <g id="patch_183">
    <path clip-path="url(#p114e88de8f)" d="M 308.7 307.584 
L 310.095 307.584 
L 310.095 154.815645 
L 308.7 154.815645 
z
" style="fill:#1f77b4;"/>
   </g>
   <g id="patch_184">
    <path clip-path="url(#p114e88de8f)" d="M 310.095 307.584 
L 311.49 307.584 
L 311.49 148.994682 
L 310.095 148.994682 
z
" style="fill:#1f77b4;"/>
   </g>
   <g id="patch_185">
    <path clip-path="url(#p114e88de8f)" d="M 311.49 307.584 
L 312.885 307.584 
L 312.885 154.578427 
L 311.49 154.578427 
z
" style="fill:#1f77b4;"/>
   </g>
   <g id="patch_186">
    <path clip-path="url(#p114e88de8f)" d="M 312.885 307.584 
L 314.28 307.584 
L 314.28 154.249972 
L 312.885 154.249972 
z
" style="fill:#1f77b4;"/>
   </g>
   <g id="patch_187">
    <path clip-path="url(#p114e88de8f)" d="M 314.28 307.584 
L 315.675 307.584 
L 315.675 141.111747 
L 314.28 141.111747 
z
" style="fill:#1f77b4;"/>
   </g>
   <g id="patch_188">
    <path clip-path="url(#p114e88de8f)" d="M 315.675 307.584 
L 317.07 307.584 
L 317.07 137.571726 
L 315.675 137.571726 
z
" style="fill:#1f77b4;"/>
   </g>
   <g id="patch_189">
    <path clip-path="url(#p114e88de8f)" d="M 317.07 307.584 
L 318.465 307.584 
L 318.465 142.133609 
L 317.07 142.133609 
z
" style="fill:#1f77b4;"/>
   </g>
   <g id="patch_190">
    <path clip-path="url(#p114e88de8f)" d="M 318.465 307.584 
L 319.86 307.584 
L 319.86 137.498735 
L 318.465 137.498735 
z
" style="fill:#1f77b4;"/>
   </g>
   <g id="patch_191">
    <path clip-path="url(#p114e88de8f)" d="M 319.86 307.584 
L 321.255 307.584 
L 321.255 136.422131 
L 319.86 136.422131 
z
" style="fill:#1f77b4;"/>
   </g>
   <g id="patch_192">
    <path clip-path="url(#p114e88de8f)" d="M 321.255 307.584 
L 322.65 307.584 
L 322.65 121.860599 
L 321.255 121.860599 
z
" style="fill:#1f77b4;"/>
   </g>
   <g id="patch_193">
    <path clip-path="url(#p114e88de8f)" d="M 322.65 307.584 
L 324.045 307.584 
L 324.045 138.995033 
L 322.65 138.995033 
z
" style="fill:#1f77b4;"/>
   </g>
   <g id="patch_194">
    <path clip-path="url(#p114e88de8f)" d="M 324.045 307.584 
L 325.44 307.584 
L 325.44 137.553478 
L 324.045 137.553478 
z
" style="fill:#1f77b4;"/>
   </g>
   <g id="patch_195">
    <path clip-path="url(#p114e88de8f)" d="M 325.44 307.584 
L 326.835 307.584 
L 326.835 135.929447 
L 325.44 135.929447 
z
" style="fill:#1f77b4;"/>
   </g>
   <g id="patch_196">
    <path clip-path="url(#p114e88de8f)" d="M 326.835 307.584 
L 328.23 307.584 
L 328.23 105.492561 
L 326.835 105.492561 
z
" style="fill:#1f77b4;"/>
   </g>
   <g id="patch_197">
    <path clip-path="url(#p114e88de8f)" d="M 328.23 307.584 
L 329.625 307.584 
L 329.625 101.496351 
L 328.23 101.496351 
z
" style="fill:#1f77b4;"/>
   </g>
   <g id="patch_198">
    <path clip-path="url(#p114e88de8f)" d="M 329.625 307.584 
L 331.02 307.584 
L 331.02 116.240358 
L 329.625 116.240358 
z
" style="fill:#1f77b4;"/>
   </g>
   <g id="patch_199">
    <path clip-path="url(#p114e88de8f)" d="M 331.02 307.584 
L 332.415 307.584 
L 332.415 93.339703 
L 331.02 93.339703 
z
" style="fill:#1f77b4;"/>
   </g>
   <g id="patch_200">
    <path clip-path="url(#p114e88de8f)" d="M 332.415 307.584 
L 333.81 307.584 
L 333.81 98.850458 
L 332.415 98.850458 
z
" style="fill:#1f77b4;"/>
   </g>
   <g id="patch_201">
    <path clip-path="url(#p114e88de8f)" d="M 333.81 307.584 
L 335.205 307.584 
L 335.205 114.23313 
L 333.81 114.23313 
z
" style="fill:#1f77b4;"/>
   </g>
   <g id="patch_202">
    <path clip-path="url(#p114e88de8f)" d="M 335.205 307.584 
L 336.6 307.584 
L 336.6 150.180772 
L 335.205 150.180772 
z
" style="fill:#1f77b4;"/>
   </g>
   <g id="patch_203">
    <path clip-path="url(#p114e88de8f)" d="M 336.6 307.584 
L 337.995 307.584 
L 337.995 200.50747 
L 336.6 200.50747 
z
" style="fill:#1f77b4;"/>
   </g>
   <g id="patch_204">
    <path clip-path="url(#p114e88de8f)" d="M 337.995 307.584 
L 339.39 307.584 
L 339.39 244.830731 
L 337.995 244.830731 
z
" style="fill:#1f77b4;"/>
   </g>
   <g id="patch_205">
    <path clip-path="url(#p114e88de8f)" d="M 339.39 307.584 
L 340.785 307.584 
L 340.785 257.220806 
L 339.39 257.220806 
z
" style="fill:#1f77b4;"/>
   </g>
   <g id="patch_206">
    <path clip-path="url(#p114e88de8f)" d="M 340.785 307.584 
L 342.18 307.584 
L 342.18 257.585757 
L 340.785 257.585757 
z
" style="fill:#1f77b4;"/>
   </g>
   <g id="patch_207">
    <path clip-path="url(#p114e88de8f)" d="M 342.18 307.584 
L 343.575 307.584 
L 343.575 254.793884 
L 342.18 254.793884 
z
" style="fill:#1f77b4;"/>
   </g>
   <g id="patch_208">
    <path clip-path="url(#p114e88de8f)" d="M 343.575 307.584 
L 344.97 307.584 
L 344.97 256.60039 
L 343.575 256.60039 
z
" style="fill:#1f77b4;"/>
   </g>
   <g id="patch_209">
    <path clip-path="url(#p114e88de8f)" d="M 344.97 307.584 
L 346.365 307.584 
L 346.365 258.954322 
L 344.97 258.954322 
z
" style="fill:#1f77b4;"/>
   </g>
   <g id="patch_210">
    <path clip-path="url(#p114e88de8f)" d="M 346.365 307.584 
L 347.76 307.584 
L 347.76 257.841222 
L 346.365 257.841222 
z
" style="fill:#1f77b4;"/>
   </g>
   <g id="patch_211">
    <path clip-path="url(#p114e88de8f)" d="M 347.76 307.584 
L 349.155 307.584 
L 349.155 265.395701 
L 347.76 265.395701 
z
" style="fill:#1f77b4;"/>
   </g>
   <g id="patch_212">
    <path clip-path="url(#p114e88de8f)" d="M 349.155 307.584 
L 350.55 307.584 
L 350.55 267.147465 
L 349.155 267.147465 
z
" style="fill:#1f77b4;"/>
   </g>
   <g id="patch_213">
    <path clip-path="url(#p114e88de8f)" d="M 350.55 307.584 
L 351.945 307.584 
L 351.945 267.859118 
L 350.55 267.859118 
z
" style="fill:#1f77b4;"/>
   </g>
   <g id="patch_214">
    <path clip-path="url(#p114e88de8f)" d="M 351.945 307.584 
L 353.34 307.584 
L 353.34 269.519644 
L 351.945 269.519644 
z
" style="fill:#1f77b4;"/>
   </g>
   <g id="patch_215">
    <path clip-path="url(#p114e88de8f)" d="M 353.34 307.584 
L 354.735 307.584 
L 354.735 276.252984 
L 353.34 276.252984 
z
" style="fill:#1f77b4;"/>
   </g>
   <g id="patch_216">
    <path clip-path="url(#p114e88de8f)" d="M 354.735 307.584 
L 356.13 307.584 
L 356.13 280.322184 
L 354.735 280.322184 
z
" style="fill:#1f77b4;"/>
   </g>
   <g id="patch_217">
    <path clip-path="url(#p114e88de8f)" d="M 356.13 307.584 
L 357.525 307.584 
L 357.525 283.31478 
L 356.13 283.31478 
z
" style="fill:#1f77b4;"/>
   </g>
   <g id="patch_218">
    <path clip-path="url(#p114e88de8f)" d="M 357.525 307.584 
L 358.92 307.584 
L 358.92 281.636007 
L 357.525 281.636007 
z
" style="fill:#1f77b4;"/>
   </g>
   <g id="patch_219">
    <path clip-path="url(#p114e88de8f)" d="M 358.92 307.584 
L 360.315 307.584 
L 360.315 294.372785 
L 358.92 294.372785 
z
" style="fill:#1f77b4;"/>
   </g>
   <g id="patch_220">
    <path clip-path="url(#p114e88de8f)" d="M 360.315 307.584 
L 361.71 307.584 
L 361.71 298.3325 
L 360.315 298.3325 
z
" style="fill:#1f77b4;"/>
   </g>
   <g id="patch_221">
    <path clip-path="url(#p114e88de8f)" d="M 361.71 307.584 
L 363.105 307.584 
L 363.105 300.522204 
L 361.71 300.522204 
z
" style="fill:#1f77b4;"/>
   </g>
   <g id="patch_222">
    <path clip-path="url(#p114e88de8f)" d="M 363.105 307.584 
L 364.5 307.584 
L 364.5 303.843256 
L 363.105 303.843256 
z
" style="fill:#1f77b4;"/>
   </g>
   <g id="patch_223">
    <path clip-path="url(#p114e88de8f)" d="M 364.5 307.584 
L 365.895 307.584 
L 365.895 304.755632 
L 364.5 304.755632 
z
" style="fill:#1f77b4;"/>
   </g>
   <g id="patch_224">
    <path clip-path="url(#p114e88de8f)" d="M 365.895 307.584 
L 367.29 307.584 
L 367.29 304.025731 
L 365.895 304.025731 
z
" style="fill:#1f77b4;"/>
   </g>
   <g id="patch_225">
    <path clip-path="url(#p114e88de8f)" d="M 367.29 307.584 
L 368.685 307.584 
L 368.685 304.390682 
L 367.29 304.390682 
z
" style="fill:#1f77b4;"/>
   </g>
   <g id="patch_226">
    <path clip-path="url(#p114e88de8f)" d="M 368.685 307.584 
L 370.08 307.584 
L 370.08 304.390682 
L 368.685 304.390682 
z
" style="fill:#1f77b4;"/>
   </g>
   <g id="patch_227">
    <path clip-path="url(#p114e88de8f)" d="M 370.08 307.584 
L 371.475 307.584 
L 371.475 307.36503 
L 370.08 307.36503 
z
" style="fill:#1f77b4;"/>
   </g>
   <g id="patch_228">
    <path clip-path="url(#p114e88de8f)" d="M 371.475 307.584 
L 372.87 307.584 
L 372.87 307.255544 
L 371.475 307.255544 
z
" style="fill:#1f77b4;"/>
   </g>
   <g id="patch_229">
    <path clip-path="url(#p114e88de8f)" d="M 372.87 307.584 
L 374.265 307.584 
L 374.265 307.346782 
L 372.87 307.346782 
z
" style="fill:#1f77b4;"/>
   </g>
   <g id="patch_230">
    <path clip-path="url(#p114e88de8f)" d="M 374.265 307.584 
L 375.66 307.584 
L 375.66 307.328535 
L 374.265 307.328535 
z
" style="fill:#1f77b4;"/>
   </g>
   <g id="patch_231">
    <path clip-path="url(#p114e88de8f)" d="M 375.66 307.584 
L 377.055 307.584 
L 377.055 307.36503 
L 375.66 307.36503 
z
" style="fill:#1f77b4;"/>
   </g>
   <g id="patch_232">
    <path clip-path="url(#p114e88de8f)" d="M 377.055 307.584 
L 378.45 307.584 
L 378.45 307.310287 
L 377.055 307.310287 
z
" style="fill:#1f77b4;"/>
   </g>
   <g id="patch_233">
    <path clip-path="url(#p114e88de8f)" d="M 378.45 307.584 
L 379.845 307.584 
L 379.845 307.43802 
L 378.45 307.43802 
z
" style="fill:#1f77b4;"/>
   </g>
   <g id="patch_234">
    <path clip-path="url(#p114e88de8f)" d="M 379.845 307.584 
L 381.24 307.584 
L 381.24 307.51101 
L 379.845 307.51101 
z
" style="fill:#1f77b4;"/>
   </g>
   <g id="patch_235">
    <path clip-path="url(#p114e88de8f)" d="M 381.24 307.584 
L 382.635 307.584 
L 382.635 307.474515 
L 381.24 307.474515 
z
" style="fill:#1f77b4;"/>
   </g>
   <g id="patch_236">
    <path clip-path="url(#p114e88de8f)" d="M 382.635 307.584 
L 384.03 307.584 
L 384.03 307.547505 
L 382.635 307.547505 
z
" style="fill:#1f77b4;"/>
   </g>
   <g id="patch_237">
    <path clip-path="url(#p114e88de8f)" d="M 384.03 307.584 
L 385.425 307.584 
L 385.425 307.474515 
L 384.03 307.474515 
z
" style="fill:#1f77b4;"/>
   </g>
   <g id="patch_238">
    <path clip-path="url(#p114e88de8f)" d="M 385.425 307.584 
L 386.82 307.584 
L 386.82 307.547505 
L 385.425 307.547505 
z
" style="fill:#1f77b4;"/>
   </g>
   <g id="patch_239">
    <path clip-path="url(#p114e88de8f)" d="M 386.82 307.584 
L 388.215 307.584 
L 388.215 307.565752 
L 386.82 307.565752 
z
" style="fill:#1f77b4;"/>
   </g>
   <g id="patch_240">
    <path clip-path="url(#p114e88de8f)" d="M 388.215 307.584 
L 389.61 307.584 
L 389.61 307.43802 
L 388.215 307.43802 
z
" style="fill:#1f77b4;"/>
   </g>
   <g id="patch_241">
    <path clip-path="url(#p114e88de8f)" d="M 389.61 307.584 
L 391.005 307.584 
L 391.005 307.529257 
L 389.61 307.529257 
z
" style="fill:#1f77b4;"/>
   </g>
   <g id="patch_242">
    <path clip-path="url(#p114e88de8f)" d="M 391.005 307.584 
L 392.4 307.584 
L 392.4 307.565752 
L 391.005 307.565752 
z
" style="fill:#1f77b4;"/>
   </g>
   <g id="patch_243">
    <path clip-path="url(#p114e88de8f)" d="M 392.4 307.584 
L 393.795 307.584 
L 393.795 307.565752 
L 392.4 307.565752 
z
" style="fill:#1f77b4;"/>
   </g>
   <g id="patch_244">
    <path clip-path="url(#p114e88de8f)" d="M 393.795 307.584 
L 395.19 307.584 
L 395.19 307.584 
L 393.795 307.584 
z
" style="fill:#1f77b4;"/>
   </g>
   <g id="patch_245">
    <path clip-path="url(#p114e88de8f)" d="M 395.19 307.584 
L 396.585 307.584 
L 396.585 307.584 
L 395.19 307.584 
z
" style="fill:#1f77b4;"/>
   </g>
   <g id="patch_246">
    <path clip-path="url(#p114e88de8f)" d="M 396.585 307.584 
L 397.98 307.584 
L 397.98 307.529257 
L 396.585 307.529257 
z
" style="fill:#1f77b4;"/>
   </g>
   <g id="patch_247">
    <path clip-path="url(#p114e88de8f)" d="M 397.98 307.584 
L 399.375 307.584 
L 399.375 307.565752 
L 397.98 307.565752 
z
" style="fill:#1f77b4;"/>
   </g>
   <g id="patch_248">
    <path clip-path="url(#p114e88de8f)" d="M 399.375 307.584 
L 400.77 307.584 
L 400.77 307.584 
L 399.375 307.584 
z
" style="fill:#1f77b4;"/>
   </g>
   <g id="patch_249">
    <path clip-path="url(#p114e88de8f)" d="M 400.77 307.584 
L 402.165 307.584 
L 402.165 307.565752 
L 400.77 307.565752 
z
" style="fill:#1f77b4;"/>
   </g>
   <g id="patch_250">
    <path clip-path="url(#p114e88de8f)" d="M 402.165 307.584 
L 403.56 307.584 
L 403.56 307.584 
L 402.165 307.584 
z
" style="fill:#1f77b4;"/>
   </g>
   <g id="patch_251">
    <path clip-path="url(#p114e88de8f)" d="M 403.56 307.584 
L 404.955 307.584 
L 404.955 307.584 
L 403.56 307.584 
z
" style="fill:#1f77b4;"/>
   </g>
   <g id="patch_252">
    <path clip-path="url(#p114e88de8f)" d="M 404.955 307.584 
L 406.35 307.584 
L 406.35 307.565752 
L 404.955 307.565752 
z
" style="fill:#1f77b4;"/>
   </g>
   <g id="patch_253">
    <path clip-path="url(#p114e88de8f)" d="M 406.35 307.584 
L 407.745 307.584 
L 407.745 307.584 
L 406.35 307.584 
z
" style="fill:#1f77b4;"/>
   </g>
   <g id="patch_254">
    <path clip-path="url(#p114e88de8f)" d="M 407.745 307.584 
L 409.14 307.584 
L 409.14 307.584 
L 407.745 307.584 
z
" style="fill:#1f77b4;"/>
   </g>
   <g id="patch_255">
    <path clip-path="url(#p114e88de8f)" d="M 409.14 307.584 
L 410.535 307.584 
L 410.535 307.565752 
L 409.14 307.565752 
z
" style="fill:#1f77b4;"/>
   </g>
   <g id="patch_256">
    <path clip-path="url(#p114e88de8f)" d="M 410.535 307.584 
L 411.93 307.584 
L 411.93 307.547505 
L 410.535 307.547505 
z
" style="fill:#1f77b4;"/>
   </g>
   <g id="patch_257">
    <path clip-path="url(#p114e88de8f)" d="M 411.93 307.584 
L 413.325 307.584 
L 413.325 307.584 
L 411.93 307.584 
z
" style="fill:#1f77b4;"/>
   </g>
   <g id="patch_258">
    <path clip-path="url(#p114e88de8f)" d="M 413.325 307.584 
L 414.72 307.584 
L 414.72 307.584 
L 413.325 307.584 
z
" style="fill:#1f77b4;"/>
   </g>
   <g id="matplotlib.axis_1">
    <g id="xtick_1">
     <g id="line2d_1">
      <defs>
       <path d="M 0 0 
L 0 3.5 
" id="mc676c2f79c" style="stroke:#000000;stroke-width:0.8;"/>
      </defs>
      <g>
       <use style="stroke:#000000;stroke-width:0.8;" x="57.6" xlink:href="#mc676c2f79c" y="307.584"/>
      </g>
     </g>
     <g id="text_1">
      <!-- 0 -->
      <g transform="translate(54.41875 322.182437)scale(0.1 -0.1)">
       <defs>
        <path d="M 2034 4250 
Q 1547 4250 1301 3770 
Q 1056 3291 1056 2328 
Q 1056 1369 1301 889 
Q 1547 409 2034 409 
Q 2525 409 2770 889 
Q 3016 1369 3016 2328 
Q 3016 3291 2770 3770 
Q 2525 4250 2034 4250 
z
M 2034 4750 
Q 2819 4750 3233 4129 
Q 3647 3509 3647 2328 
Q 3647 1150 3233 529 
Q 2819 -91 2034 -91 
Q 1250 -91 836 529 
Q 422 1150 422 2328 
Q 422 3509 836 4129 
Q 1250 4750 2034 4750 
z
" id="DejaVuSans-30" transform="scale(0.015625)"/>
       </defs>
       <use xlink:href="#DejaVuSans-30"/>
      </g>
     </g>
    </g>
    <g id="xtick_2">
     <g id="line2d_2">
      <g>
       <use style="stroke:#000000;stroke-width:0.8;" x="127.35" xlink:href="#mc676c2f79c" y="307.584"/>
      </g>
     </g>
     <g id="text_2">
      <!-- 50 -->
      <g transform="translate(120.9875 322.182437)scale(0.1 -0.1)">
       <defs>
        <path d="M 691 4666 
L 3169 4666 
L 3169 4134 
L 1269 4134 
L 1269 2991 
Q 1406 3038 1543 3061 
Q 1681 3084 1819 3084 
Q 2600 3084 3056 2656 
Q 3513 2228 3513 1497 
Q 3513 744 3044 326 
Q 2575 -91 1722 -91 
Q 1428 -91 1123 -41 
Q 819 9 494 109 
L 494 744 
Q 775 591 1075 516 
Q 1375 441 1709 441 
Q 2250 441 2565 725 
Q 2881 1009 2881 1497 
Q 2881 1984 2565 2268 
Q 2250 2553 1709 2553 
Q 1456 2553 1204 2497 
Q 953 2441 691 2322 
L 691 4666 
z
" id="DejaVuSans-35" transform="scale(0.015625)"/>
       </defs>
       <use xlink:href="#DejaVuSans-35"/>
       <use x="63.623047" xlink:href="#DejaVuSans-30"/>
      </g>
     </g>
    </g>
    <g id="xtick_3">
     <g id="line2d_3">
      <g>
       <use style="stroke:#000000;stroke-width:0.8;" x="197.1" xlink:href="#mc676c2f79c" y="307.584"/>
      </g>
     </g>
     <g id="text_3">
      <!-- 100 -->
      <g transform="translate(187.55625 322.182437)scale(0.1 -0.1)">
       <defs>
        <path d="M 794 531 
L 1825 531 
L 1825 4091 
L 703 3866 
L 703 4441 
L 1819 4666 
L 2450 4666 
L 2450 531 
L 3481 531 
L 3481 0 
L 794 0 
L 794 531 
z
" id="DejaVuSans-31" transform="scale(0.015625)"/>
       </defs>
       <use xlink:href="#DejaVuSans-31"/>
       <use x="63.623047" xlink:href="#DejaVuSans-30"/>
       <use x="127.246094" xlink:href="#DejaVuSans-30"/>
      </g>
     </g>
    </g>
    <g id="xtick_4">
     <g id="line2d_4">
      <g>
       <use style="stroke:#000000;stroke-width:0.8;" x="266.85" xlink:href="#mc676c2f79c" y="307.584"/>
      </g>
     </g>
     <g id="text_4">
      <!-- 150 -->
      <g transform="translate(257.30625 322.182437)scale(0.1 -0.1)">
       <use xlink:href="#DejaVuSans-31"/>
       <use x="63.623047" xlink:href="#DejaVuSans-35"/>
       <use x="127.246094" xlink:href="#DejaVuSans-30"/>
      </g>
     </g>
    </g>
    <g id="xtick_5">
     <g id="line2d_5">
      <g>
       <use style="stroke:#000000;stroke-width:0.8;" x="336.6" xlink:href="#mc676c2f79c" y="307.584"/>
      </g>
     </g>
     <g id="text_5">
      <!-- 200 -->
      <g transform="translate(327.05625 322.182437)scale(0.1 -0.1)">
       <defs>
        <path d="M 1228 531 
L 3431 531 
L 3431 0 
L 469 0 
L 469 531 
Q 828 903 1448 1529 
Q 2069 2156 2228 2338 
Q 2531 2678 2651 2914 
Q 2772 3150 2772 3378 
Q 2772 3750 2511 3984 
Q 2250 4219 1831 4219 
Q 1534 4219 1204 4116 
Q 875 4013 500 3803 
L 500 4441 
Q 881 4594 1212 4672 
Q 1544 4750 1819 4750 
Q 2544 4750 2975 4387 
Q 3406 4025 3406 3419 
Q 3406 3131 3298 2873 
Q 3191 2616 2906 2266 
Q 2828 2175 2409 1742 
Q 1991 1309 1228 531 
z
" id="DejaVuSans-32" transform="scale(0.015625)"/>
       </defs>
       <use xlink:href="#DejaVuSans-32"/>
       <use x="63.623047" xlink:href="#DejaVuSans-30"/>
       <use x="127.246094" xlink:href="#DejaVuSans-30"/>
      </g>
     </g>
    </g>
    <g id="xtick_6">
     <g id="line2d_6">
      <g>
       <use style="stroke:#000000;stroke-width:0.8;" x="406.35" xlink:href="#mc676c2f79c" y="307.584"/>
      </g>
     </g>
     <g id="text_6">
      <!-- 250 -->
      <g transform="translate(396.80625 322.182437)scale(0.1 -0.1)">
       <use xlink:href="#DejaVuSans-32"/>
       <use x="63.623047" xlink:href="#DejaVuSans-35"/>
       <use x="127.246094" xlink:href="#DejaVuSans-30"/>
      </g>
     </g>
    </g>
    <g id="text_7">
     <!-- Bins -->
     <g transform="translate(225.567031 335.860562)scale(0.1 -0.1)">
      <defs>
       <path d="M 1259 2228 
L 1259 519 
L 2272 519 
Q 2781 519 3026 730 
Q 3272 941 3272 1375 
Q 3272 1813 3026 2020 
Q 2781 2228 2272 2228 
L 1259 2228 
z
M 1259 4147 
L 1259 2741 
L 2194 2741 
Q 2656 2741 2882 2914 
Q 3109 3088 3109 3444 
Q 3109 3797 2882 3972 
Q 2656 4147 2194 4147 
L 1259 4147 
z
M 628 4666 
L 2241 4666 
Q 2963 4666 3353 4366 
Q 3744 4066 3744 3513 
Q 3744 3084 3544 2831 
Q 3344 2578 2956 2516 
Q 3422 2416 3680 2098 
Q 3938 1781 3938 1306 
Q 3938 681 3513 340 
Q 3088 0 2303 0 
L 628 0 
L 628 4666 
z
" id="DejaVuSans-42" transform="scale(0.015625)"/>
       <path d="M 603 3500 
L 1178 3500 
L 1178 0 
L 603 0 
L 603 3500 
z
M 603 4863 
L 1178 4863 
L 1178 4134 
L 603 4134 
L 603 4863 
z
" id="DejaVuSans-69" transform="scale(0.015625)"/>
       <path d="M 3513 2113 
L 3513 0 
L 2938 0 
L 2938 2094 
Q 2938 2591 2744 2837 
Q 2550 3084 2163 3084 
Q 1697 3084 1428 2787 
Q 1159 2491 1159 1978 
L 1159 0 
L 581 0 
L 581 3500 
L 1159 3500 
L 1159 2956 
Q 1366 3272 1645 3428 
Q 1925 3584 2291 3584 
Q 2894 3584 3203 3211 
Q 3513 2838 3513 2113 
z
" id="DejaVuSans-6e" transform="scale(0.015625)"/>
       <path d="M 2834 3397 
L 2834 2853 
Q 2591 2978 2328 3040 
Q 2066 3103 1784 3103 
Q 1356 3103 1142 2972 
Q 928 2841 928 2578 
Q 928 2378 1081 2264 
Q 1234 2150 1697 2047 
L 1894 2003 
Q 2506 1872 2764 1633 
Q 3022 1394 3022 966 
Q 3022 478 2636 193 
Q 2250 -91 1575 -91 
Q 1294 -91 989 -36 
Q 684 19 347 128 
L 347 722 
Q 666 556 975 473 
Q 1284 391 1588 391 
Q 1994 391 2212 530 
Q 2431 669 2431 922 
Q 2431 1156 2273 1281 
Q 2116 1406 1581 1522 
L 1381 1569 
Q 847 1681 609 1914 
Q 372 2147 372 2553 
Q 372 3047 722 3315 
Q 1072 3584 1716 3584 
Q 2034 3584 2315 3537 
Q 2597 3491 2834 3397 
z
" id="DejaVuSans-73" transform="scale(0.015625)"/>
      </defs>
      <use xlink:href="#DejaVuSans-42"/>
      <use x="68.603516" xlink:href="#DejaVuSans-69"/>
      <use x="96.386719" xlink:href="#DejaVuSans-6e"/>
      <use x="159.765625" xlink:href="#DejaVuSans-73"/>
     </g>
    </g>
   </g>
   <g id="matplotlib.axis_2">
    <g id="ytick_1">
     <g id="line2d_7">
      <defs>
       <path d="M 0 0 
L -3.5 0 
" id="m6f07acbb33" style="stroke:#000000;stroke-width:0.8;"/>
      </defs>
      <g>
       <use style="stroke:#000000;stroke-width:0.8;" x="57.6" xlink:href="#m6f07acbb33" y="307.584"/>
      </g>
     </g>
     <g id="text_8">
      <!-- 0 -->
      <g transform="translate(44.2375 311.383219)scale(0.1 -0.1)">
       <use xlink:href="#DejaVuSans-30"/>
      </g>
     </g>
    </g>
    <g id="ytick_2">
     <g id="line2d_8">
      <g>
       <use style="stroke:#000000;stroke-width:0.8;" x="57.6" xlink:href="#m6f07acbb33" y="271.088932"/>
      </g>
     </g>
     <g id="text_9">
      <!-- 2000 -->
      <g transform="translate(25.15 274.888151)scale(0.1 -0.1)">
       <use xlink:href="#DejaVuSans-32"/>
       <use x="63.623047" xlink:href="#DejaVuSans-30"/>
       <use x="127.246094" xlink:href="#DejaVuSans-30"/>
       <use x="190.869141" xlink:href="#DejaVuSans-30"/>
      </g>
     </g>
    </g>
    <g id="ytick_3">
     <g id="line2d_9">
      <g>
       <use style="stroke:#000000;stroke-width:0.8;" x="57.6" xlink:href="#m6f07acbb33" y="234.593864"/>
      </g>
     </g>
     <g id="text_10">
      <!-- 4000 -->
      <g transform="translate(25.15 238.393083)scale(0.1 -0.1)">
       <defs>
        <path d="M 2419 4116 
L 825 1625 
L 2419 1625 
L 2419 4116 
z
M 2253 4666 
L 3047 4666 
L 3047 1625 
L 3713 1625 
L 3713 1100 
L 3047 1100 
L 3047 0 
L 2419 0 
L 2419 1100 
L 313 1100 
L 313 1709 
L 2253 4666 
z
" id="DejaVuSans-34" transform="scale(0.015625)"/>
       </defs>
       <use xlink:href="#DejaVuSans-34"/>
       <use x="63.623047" xlink:href="#DejaVuSans-30"/>
       <use x="127.246094" xlink:href="#DejaVuSans-30"/>
       <use x="190.869141" xlink:href="#DejaVuSans-30"/>
      </g>
     </g>
    </g>
    <g id="ytick_4">
     <g id="line2d_10">
      <g>
       <use style="stroke:#000000;stroke-width:0.8;" x="57.6" xlink:href="#m6f07acbb33" y="198.098796"/>
      </g>
     </g>
     <g id="text_11">
      <!-- 6000 -->
      <g transform="translate(25.15 201.898015)scale(0.1 -0.1)">
       <defs>
        <path d="M 2113 2584 
Q 1688 2584 1439 2293 
Q 1191 2003 1191 1497 
Q 1191 994 1439 701 
Q 1688 409 2113 409 
Q 2538 409 2786 701 
Q 3034 994 3034 1497 
Q 3034 2003 2786 2293 
Q 2538 2584 2113 2584 
z
M 3366 4563 
L 3366 3988 
Q 3128 4100 2886 4159 
Q 2644 4219 2406 4219 
Q 1781 4219 1451 3797 
Q 1122 3375 1075 2522 
Q 1259 2794 1537 2939 
Q 1816 3084 2150 3084 
Q 2853 3084 3261 2657 
Q 3669 2231 3669 1497 
Q 3669 778 3244 343 
Q 2819 -91 2113 -91 
Q 1303 -91 875 529 
Q 447 1150 447 2328 
Q 447 3434 972 4092 
Q 1497 4750 2381 4750 
Q 2619 4750 2861 4703 
Q 3103 4656 3366 4563 
z
" id="DejaVuSans-36" transform="scale(0.015625)"/>
       </defs>
       <use xlink:href="#DejaVuSans-36"/>
       <use x="63.623047" xlink:href="#DejaVuSans-30"/>
       <use x="127.246094" xlink:href="#DejaVuSans-30"/>
       <use x="190.869141" xlink:href="#DejaVuSans-30"/>
      </g>
     </g>
    </g>
    <g id="ytick_5">
     <g id="line2d_11">
      <g>
       <use style="stroke:#000000;stroke-width:0.8;" x="57.6" xlink:href="#m6f07acbb33" y="161.603728"/>
      </g>
     </g>
     <g id="text_12">
      <!-- 8000 -->
      <g transform="translate(25.15 165.402947)scale(0.1 -0.1)">
       <defs>
        <path d="M 2034 2216 
Q 1584 2216 1326 1975 
Q 1069 1734 1069 1313 
Q 1069 891 1326 650 
Q 1584 409 2034 409 
Q 2484 409 2743 651 
Q 3003 894 3003 1313 
Q 3003 1734 2745 1975 
Q 2488 2216 2034 2216 
z
M 1403 2484 
Q 997 2584 770 2862 
Q 544 3141 544 3541 
Q 544 4100 942 4425 
Q 1341 4750 2034 4750 
Q 2731 4750 3128 4425 
Q 3525 4100 3525 3541 
Q 3525 3141 3298 2862 
Q 3072 2584 2669 2484 
Q 3125 2378 3379 2068 
Q 3634 1759 3634 1313 
Q 3634 634 3220 271 
Q 2806 -91 2034 -91 
Q 1263 -91 848 271 
Q 434 634 434 1313 
Q 434 1759 690 2068 
Q 947 2378 1403 2484 
z
M 1172 3481 
Q 1172 3119 1398 2916 
Q 1625 2713 2034 2713 
Q 2441 2713 2670 2916 
Q 2900 3119 2900 3481 
Q 2900 3844 2670 4047 
Q 2441 4250 2034 4250 
Q 1625 4250 1398 4047 
Q 1172 3844 1172 3481 
z
" id="DejaVuSans-38" transform="scale(0.015625)"/>
       </defs>
       <use xlink:href="#DejaVuSans-38"/>
       <use x="63.623047" xlink:href="#DejaVuSans-30"/>
       <use x="127.246094" xlink:href="#DejaVuSans-30"/>
       <use x="190.869141" xlink:href="#DejaVuSans-30"/>
      </g>
     </g>
    </g>
    <g id="ytick_6">
     <g id="line2d_12">
      <g>
       <use style="stroke:#000000;stroke-width:0.8;" x="57.6" xlink:href="#m6f07acbb33" y="125.10866"/>
      </g>
     </g>
     <g id="text_13">
      <!-- 10000 -->
      <g transform="translate(18.7875 128.907879)scale(0.1 -0.1)">
       <use xlink:href="#DejaVuSans-31"/>
       <use x="63.623047" xlink:href="#DejaVuSans-30"/>
       <use x="127.246094" xlink:href="#DejaVuSans-30"/>
       <use x="190.869141" xlink:href="#DejaVuSans-30"/>
       <use x="254.492188" xlink:href="#DejaVuSans-30"/>
      </g>
     </g>
    </g>
    <g id="ytick_7">
     <g id="line2d_13">
      <g>
       <use style="stroke:#000000;stroke-width:0.8;" x="57.6" xlink:href="#m6f07acbb33" y="88.613592"/>
      </g>
     </g>
     <g id="text_14">
      <!-- 12000 -->
      <g transform="translate(18.7875 92.412811)scale(0.1 -0.1)">
       <use xlink:href="#DejaVuSans-31"/>
       <use x="63.623047" xlink:href="#DejaVuSans-32"/>
       <use x="127.246094" xlink:href="#DejaVuSans-30"/>
       <use x="190.869141" xlink:href="#DejaVuSans-30"/>
       <use x="254.492188" xlink:href="#DejaVuSans-30"/>
      </g>
     </g>
    </g>
    <g id="ytick_8">
     <g id="line2d_14">
      <g>
       <use style="stroke:#000000;stroke-width:0.8;" x="57.6" xlink:href="#m6f07acbb33" y="52.118524"/>
      </g>
     </g>
     <g id="text_15">
      <!-- 14000 -->
      <g transform="translate(18.7875 55.917742)scale(0.1 -0.1)">
       <use xlink:href="#DejaVuSans-31"/>
       <use x="63.623047" xlink:href="#DejaVuSans-34"/>
       <use x="127.246094" xlink:href="#DejaVuSans-30"/>
       <use x="190.869141" xlink:href="#DejaVuSans-30"/>
       <use x="254.492188" xlink:href="#DejaVuSans-30"/>
      </g>
     </g>
    </g>
    <g id="text_16">
     <!-- Number of Pixels -->
     <g transform="translate(12.707812 216.776437)rotate(-90)scale(0.1 -0.1)">
      <defs>
       <path d="M 628 4666 
L 1478 4666 
L 3547 763 
L 3547 4666 
L 4159 4666 
L 4159 0 
L 3309 0 
L 1241 3903 
L 1241 0 
L 628 0 
L 628 4666 
z
" id="DejaVuSans-4e" transform="scale(0.015625)"/>
       <path d="M 544 1381 
L 544 3500 
L 1119 3500 
L 1119 1403 
Q 1119 906 1312 657 
Q 1506 409 1894 409 
Q 2359 409 2629 706 
Q 2900 1003 2900 1516 
L 2900 3500 
L 3475 3500 
L 3475 0 
L 2900 0 
L 2900 538 
Q 2691 219 2414 64 
Q 2138 -91 1772 -91 
Q 1169 -91 856 284 
Q 544 659 544 1381 
z
M 1991 3584 
L 1991 3584 
z
" id="DejaVuSans-75" transform="scale(0.015625)"/>
       <path d="M 3328 2828 
Q 3544 3216 3844 3400 
Q 4144 3584 4550 3584 
Q 5097 3584 5394 3201 
Q 5691 2819 5691 2113 
L 5691 0 
L 5113 0 
L 5113 2094 
Q 5113 2597 4934 2840 
Q 4756 3084 4391 3084 
Q 3944 3084 3684 2787 
Q 3425 2491 3425 1978 
L 3425 0 
L 2847 0 
L 2847 2094 
Q 2847 2600 2669 2842 
Q 2491 3084 2119 3084 
Q 1678 3084 1418 2786 
Q 1159 2488 1159 1978 
L 1159 0 
L 581 0 
L 581 3500 
L 1159 3500 
L 1159 2956 
Q 1356 3278 1631 3431 
Q 1906 3584 2284 3584 
Q 2666 3584 2933 3390 
Q 3200 3197 3328 2828 
z
" id="DejaVuSans-6d" transform="scale(0.015625)"/>
       <path d="M 3116 1747 
Q 3116 2381 2855 2742 
Q 2594 3103 2138 3103 
Q 1681 3103 1420 2742 
Q 1159 2381 1159 1747 
Q 1159 1113 1420 752 
Q 1681 391 2138 391 
Q 2594 391 2855 752 
Q 3116 1113 3116 1747 
z
M 1159 2969 
Q 1341 3281 1617 3432 
Q 1894 3584 2278 3584 
Q 2916 3584 3314 3078 
Q 3713 2572 3713 1747 
Q 3713 922 3314 415 
Q 2916 -91 2278 -91 
Q 1894 -91 1617 61 
Q 1341 213 1159 525 
L 1159 0 
L 581 0 
L 581 4863 
L 1159 4863 
L 1159 2969 
z
" id="DejaVuSans-62" transform="scale(0.015625)"/>
       <path d="M 3597 1894 
L 3597 1613 
L 953 1613 
Q 991 1019 1311 708 
Q 1631 397 2203 397 
Q 2534 397 2845 478 
Q 3156 559 3463 722 
L 3463 178 
Q 3153 47 2828 -22 
Q 2503 -91 2169 -91 
Q 1331 -91 842 396 
Q 353 884 353 1716 
Q 353 2575 817 3079 
Q 1281 3584 2069 3584 
Q 2775 3584 3186 3129 
Q 3597 2675 3597 1894 
z
M 3022 2063 
Q 3016 2534 2758 2815 
Q 2500 3097 2075 3097 
Q 1594 3097 1305 2825 
Q 1016 2553 972 2059 
L 3022 2063 
z
" id="DejaVuSans-65" transform="scale(0.015625)"/>
       <path d="M 2631 2963 
Q 2534 3019 2420 3045 
Q 2306 3072 2169 3072 
Q 1681 3072 1420 2755 
Q 1159 2438 1159 1844 
L 1159 0 
L 581 0 
L 581 3500 
L 1159 3500 
L 1159 2956 
Q 1341 3275 1631 3429 
Q 1922 3584 2338 3584 
Q 2397 3584 2469 3576 
Q 2541 3569 2628 3553 
L 2631 2963 
z
" id="DejaVuSans-72" transform="scale(0.015625)"/>
       <path id="DejaVuSans-20" transform="scale(0.015625)"/>
       <path d="M 1959 3097 
Q 1497 3097 1228 2736 
Q 959 2375 959 1747 
Q 959 1119 1226 758 
Q 1494 397 1959 397 
Q 2419 397 2687 759 
Q 2956 1122 2956 1747 
Q 2956 2369 2687 2733 
Q 2419 3097 1959 3097 
z
M 1959 3584 
Q 2709 3584 3137 3096 
Q 3566 2609 3566 1747 
Q 3566 888 3137 398 
Q 2709 -91 1959 -91 
Q 1206 -91 779 398 
Q 353 888 353 1747 
Q 353 2609 779 3096 
Q 1206 3584 1959 3584 
z
" id="DejaVuSans-6f" transform="scale(0.015625)"/>
       <path d="M 2375 4863 
L 2375 4384 
L 1825 4384 
Q 1516 4384 1395 4259 
Q 1275 4134 1275 3809 
L 1275 3500 
L 2222 3500 
L 2222 3053 
L 1275 3053 
L 1275 0 
L 697 0 
L 697 3053 
L 147 3053 
L 147 3500 
L 697 3500 
L 697 3744 
Q 697 4328 969 4595 
Q 1241 4863 1831 4863 
L 2375 4863 
z
" id="DejaVuSans-66" transform="scale(0.015625)"/>
       <path d="M 1259 4147 
L 1259 2394 
L 2053 2394 
Q 2494 2394 2734 2622 
Q 2975 2850 2975 3272 
Q 2975 3691 2734 3919 
Q 2494 4147 2053 4147 
L 1259 4147 
z
M 628 4666 
L 2053 4666 
Q 2838 4666 3239 4311 
Q 3641 3956 3641 3272 
Q 3641 2581 3239 2228 
Q 2838 1875 2053 1875 
L 1259 1875 
L 1259 0 
L 628 0 
L 628 4666 
z
" id="DejaVuSans-50" transform="scale(0.015625)"/>
       <path d="M 3513 3500 
L 2247 1797 
L 3578 0 
L 2900 0 
L 1881 1375 
L 863 0 
L 184 0 
L 1544 1831 
L 300 3500 
L 978 3500 
L 1906 2253 
L 2834 3500 
L 3513 3500 
z
" id="DejaVuSans-78" transform="scale(0.015625)"/>
       <path d="M 603 4863 
L 1178 4863 
L 1178 0 
L 603 0 
L 603 4863 
z
" id="DejaVuSans-6c" transform="scale(0.015625)"/>
      </defs>
      <use xlink:href="#DejaVuSans-4e"/>
      <use x="74.804688" xlink:href="#DejaVuSans-75"/>
      <use x="138.183594" xlink:href="#DejaVuSans-6d"/>
      <use x="235.595703" xlink:href="#DejaVuSans-62"/>
      <use x="299.072266" xlink:href="#DejaVuSans-65"/>
      <use x="360.595703" xlink:href="#DejaVuSans-72"/>
      <use x="401.708984" xlink:href="#DejaVuSans-20"/>
      <use x="433.496094" xlink:href="#DejaVuSans-6f"/>
      <use x="494.677734" xlink:href="#DejaVuSans-66"/>
      <use x="529.882812" xlink:href="#DejaVuSans-20"/>
      <use x="561.669922" xlink:href="#DejaVuSans-50"/>
      <use x="619.722656" xlink:href="#DejaVuSans-69"/>
      <use x="647.505859" xlink:href="#DejaVuSans-78"/>
      <use x="703.560547" xlink:href="#DejaVuSans-65"/>
      <use x="765.083984" xlink:href="#DejaVuSans-6c"/>
      <use x="792.867188" xlink:href="#DejaVuSans-73"/>
     </g>
    </g>
   </g>
   <g id="patch_259">
    <path d="M 57.6 307.584 
L 57.6 41.472 
" style="fill:none;stroke:#000000;stroke-linecap:square;stroke-linejoin:miter;stroke-width:0.8;"/>
   </g>
   <g id="patch_260">
    <path d="M 414.72 307.584 
L 414.72 41.472 
" style="fill:none;stroke:#000000;stroke-linecap:square;stroke-linejoin:miter;stroke-width:0.8;"/>
   </g>
   <g id="patch_261">
    <path d="M 57.6 307.584 
L 414.72 307.584 
" style="fill:none;stroke:#000000;stroke-linecap:square;stroke-linejoin:miter;stroke-width:0.8;"/>
   </g>
   <g id="patch_262">
    <path d="M 57.6 41.472 
L 414.72 41.472 
" style="fill:none;stroke:#000000;stroke-linecap:square;stroke-linejoin:miter;stroke-width:0.8;"/>
   </g>
   <g id="text_17">
    <!-- Grayscale Image3.jpeg Histogram -->
    <g transform="translate(133.92375 35.472)scale(0.12 -0.12)">
     <defs>
      <path d="M 3809 666 
L 3809 1919 
L 2778 1919 
L 2778 2438 
L 4434 2438 
L 4434 434 
Q 4069 175 3628 42 
Q 3188 -91 2688 -91 
Q 1594 -91 976 548 
Q 359 1188 359 2328 
Q 359 3472 976 4111 
Q 1594 4750 2688 4750 
Q 3144 4750 3555 4637 
Q 3966 4525 4313 4306 
L 4313 3634 
Q 3963 3931 3569 4081 
Q 3175 4231 2741 4231 
Q 1884 4231 1454 3753 
Q 1025 3275 1025 2328 
Q 1025 1384 1454 906 
Q 1884 428 2741 428 
Q 3075 428 3337 486 
Q 3600 544 3809 666 
z
" id="DejaVuSans-47" transform="scale(0.015625)"/>
      <path d="M 2194 1759 
Q 1497 1759 1228 1600 
Q 959 1441 959 1056 
Q 959 750 1161 570 
Q 1363 391 1709 391 
Q 2188 391 2477 730 
Q 2766 1069 2766 1631 
L 2766 1759 
L 2194 1759 
z
M 3341 1997 
L 3341 0 
L 2766 0 
L 2766 531 
Q 2569 213 2275 61 
Q 1981 -91 1556 -91 
Q 1019 -91 701 211 
Q 384 513 384 1019 
Q 384 1609 779 1909 
Q 1175 2209 1959 2209 
L 2766 2209 
L 2766 2266 
Q 2766 2663 2505 2880 
Q 2244 3097 1772 3097 
Q 1472 3097 1187 3025 
Q 903 2953 641 2809 
L 641 3341 
Q 956 3463 1253 3523 
Q 1550 3584 1831 3584 
Q 2591 3584 2966 3190 
Q 3341 2797 3341 1997 
z
" id="DejaVuSans-61" transform="scale(0.015625)"/>
      <path d="M 2059 -325 
Q 1816 -950 1584 -1140 
Q 1353 -1331 966 -1331 
L 506 -1331 
L 506 -850 
L 844 -850 
Q 1081 -850 1212 -737 
Q 1344 -625 1503 -206 
L 1606 56 
L 191 3500 
L 800 3500 
L 1894 763 
L 2988 3500 
L 3597 3500 
L 2059 -325 
z
" id="DejaVuSans-79" transform="scale(0.015625)"/>
      <path d="M 3122 3366 
L 3122 2828 
Q 2878 2963 2633 3030 
Q 2388 3097 2138 3097 
Q 1578 3097 1268 2742 
Q 959 2388 959 1747 
Q 959 1106 1268 751 
Q 1578 397 2138 397 
Q 2388 397 2633 464 
Q 2878 531 3122 666 
L 3122 134 
Q 2881 22 2623 -34 
Q 2366 -91 2075 -91 
Q 1284 -91 818 406 
Q 353 903 353 1747 
Q 353 2603 823 3093 
Q 1294 3584 2113 3584 
Q 2378 3584 2631 3529 
Q 2884 3475 3122 3366 
z
" id="DejaVuSans-63" transform="scale(0.015625)"/>
      <path d="M 628 4666 
L 1259 4666 
L 1259 0 
L 628 0 
L 628 4666 
z
" id="DejaVuSans-49" transform="scale(0.015625)"/>
      <path d="M 2906 1791 
Q 2906 2416 2648 2759 
Q 2391 3103 1925 3103 
Q 1463 3103 1205 2759 
Q 947 2416 947 1791 
Q 947 1169 1205 825 
Q 1463 481 1925 481 
Q 2391 481 2648 825 
Q 2906 1169 2906 1791 
z
M 3481 434 
Q 3481 -459 3084 -895 
Q 2688 -1331 1869 -1331 
Q 1566 -1331 1297 -1286 
Q 1028 -1241 775 -1147 
L 775 -588 
Q 1028 -725 1275 -790 
Q 1522 -856 1778 -856 
Q 2344 -856 2625 -561 
Q 2906 -266 2906 331 
L 2906 616 
Q 2728 306 2450 153 
Q 2172 0 1784 0 
Q 1141 0 747 490 
Q 353 981 353 1791 
Q 353 2603 747 3093 
Q 1141 3584 1784 3584 
Q 2172 3584 2450 3431 
Q 2728 3278 2906 2969 
L 2906 3500 
L 3481 3500 
L 3481 434 
z
" id="DejaVuSans-67" transform="scale(0.015625)"/>
      <path d="M 2597 2516 
Q 3050 2419 3304 2112 
Q 3559 1806 3559 1356 
Q 3559 666 3084 287 
Q 2609 -91 1734 -91 
Q 1441 -91 1130 -33 
Q 819 25 488 141 
L 488 750 
Q 750 597 1062 519 
Q 1375 441 1716 441 
Q 2309 441 2620 675 
Q 2931 909 2931 1356 
Q 2931 1769 2642 2001 
Q 2353 2234 1838 2234 
L 1294 2234 
L 1294 2753 
L 1863 2753 
Q 2328 2753 2575 2939 
Q 2822 3125 2822 3475 
Q 2822 3834 2567 4026 
Q 2313 4219 1838 4219 
Q 1578 4219 1281 4162 
Q 984 4106 628 3988 
L 628 4550 
Q 988 4650 1302 4700 
Q 1616 4750 1894 4750 
Q 2613 4750 3031 4423 
Q 3450 4097 3450 3541 
Q 3450 3153 3228 2886 
Q 3006 2619 2597 2516 
z
" id="DejaVuSans-33" transform="scale(0.015625)"/>
      <path d="M 684 794 
L 1344 794 
L 1344 0 
L 684 0 
L 684 794 
z
" id="DejaVuSans-2e" transform="scale(0.015625)"/>
      <path d="M 603 3500 
L 1178 3500 
L 1178 -63 
Q 1178 -731 923 -1031 
Q 669 -1331 103 -1331 
L -116 -1331 
L -116 -844 
L 38 -844 
Q 366 -844 484 -692 
Q 603 -541 603 -63 
L 603 3500 
z
M 603 4863 
L 1178 4863 
L 1178 4134 
L 603 4134 
L 603 4863 
z
" id="DejaVuSans-6a" transform="scale(0.015625)"/>
      <path d="M 1159 525 
L 1159 -1331 
L 581 -1331 
L 581 3500 
L 1159 3500 
L 1159 2969 
Q 1341 3281 1617 3432 
Q 1894 3584 2278 3584 
Q 2916 3584 3314 3078 
Q 3713 2572 3713 1747 
Q 3713 922 3314 415 
Q 2916 -91 2278 -91 
Q 1894 -91 1617 61 
Q 1341 213 1159 525 
z
M 3116 1747 
Q 3116 2381 2855 2742 
Q 2594 3103 2138 3103 
Q 1681 3103 1420 2742 
Q 1159 2381 1159 1747 
Q 1159 1113 1420 752 
Q 1681 391 2138 391 
Q 2594 391 2855 752 
Q 3116 1113 3116 1747 
z
" id="DejaVuSans-70" transform="scale(0.015625)"/>
      <path d="M 628 4666 
L 1259 4666 
L 1259 2753 
L 3553 2753 
L 3553 4666 
L 4184 4666 
L 4184 0 
L 3553 0 
L 3553 2222 
L 1259 2222 
L 1259 0 
L 628 0 
L 628 4666 
z
" id="DejaVuSans-48" transform="scale(0.015625)"/>
      <path d="M 1172 4494 
L 1172 3500 
L 2356 3500 
L 2356 3053 
L 1172 3053 
L 1172 1153 
Q 1172 725 1289 603 
Q 1406 481 1766 481 
L 2356 481 
L 2356 0 
L 1766 0 
Q 1100 0 847 248 
Q 594 497 594 1153 
L 594 3053 
L 172 3053 
L 172 3500 
L 594 3500 
L 594 4494 
L 1172 4494 
z
" id="DejaVuSans-74" transform="scale(0.015625)"/>
     </defs>
     <use xlink:href="#DejaVuSans-47"/>
     <use x="77.490234" xlink:href="#DejaVuSans-72"/>
     <use x="118.603516" xlink:href="#DejaVuSans-61"/>
     <use x="179.882812" xlink:href="#DejaVuSans-79"/>
     <use x="239.0625" xlink:href="#DejaVuSans-73"/>
     <use x="291.162109" xlink:href="#DejaVuSans-63"/>
     <use x="346.142578" xlink:href="#DejaVuSans-61"/>
     <use x="407.421875" xlink:href="#DejaVuSans-6c"/>
     <use x="435.205078" xlink:href="#DejaVuSans-65"/>
     <use x="496.728516" xlink:href="#DejaVuSans-20"/>
     <use x="528.515625" xlink:href="#DejaVuSans-49"/>
     <use x="558.007812" xlink:href="#DejaVuSans-6d"/>
     <use x="655.419922" xlink:href="#DejaVuSans-61"/>
     <use x="716.699219" xlink:href="#DejaVuSans-67"/>
     <use x="780.175781" xlink:href="#DejaVuSans-65"/>
     <use x="841.699219" xlink:href="#DejaVuSans-33"/>
     <use x="905.322266" xlink:href="#DejaVuSans-2e"/>
     <use x="937.109375" xlink:href="#DejaVuSans-6a"/>
     <use x="964.892578" xlink:href="#DejaVuSans-70"/>
     <use x="1028.369141" xlink:href="#DejaVuSans-65"/>
     <use x="1089.892578" xlink:href="#DejaVuSans-67"/>
     <use x="1153.369141" xlink:href="#DejaVuSans-20"/>
     <use x="1185.15625" xlink:href="#DejaVuSans-48"/>
     <use x="1260.351562" xlink:href="#DejaVuSans-69"/>
     <use x="1288.134766" xlink:href="#DejaVuSans-73"/>
     <use x="1340.234375" xlink:href="#DejaVuSans-74"/>
     <use x="1379.443359" xlink:href="#DejaVuSans-6f"/>
     <use x="1440.625" xlink:href="#DejaVuSans-67"/>
     <use x="1504.101562" xlink:href="#DejaVuSans-72"/>
     <use x="1545.214844" xlink:href="#DejaVuSans-61"/>
     <use x="1606.494141" xlink:href="#DejaVuSans-6d"/>
    </g>
   </g>
   <g id="legend_1">
    <g id="patch_263">
     <path d="M 313.230938 64.150125 
L 407.72 64.150125 
Q 409.72 64.150125 409.72 62.150125 
L 409.72 48.472 
Q 409.72 46.472 407.72 46.472 
L 313.230938 46.472 
Q 311.230938 46.472 311.230938 48.472 
L 311.230938 62.150125 
Q 311.230938 64.150125 313.230938 64.150125 
z
" style="fill:#ffffff;opacity:0.8;stroke:#cccccc;stroke-linejoin:miter;"/>
    </g>
    <g id="patch_264">
     <path d="M 315.230938 58.070438 
L 335.230938 58.070438 
L 335.230938 51.070438 
L 315.230938 51.070438 
z
" style="fill:#1f77b4;"/>
    </g>
    <g id="text_18">
     <!-- Image3.jpeg -->
     <g transform="translate(343.230938 58.070438)scale(0.1 -0.1)">
      <use xlink:href="#DejaVuSans-49"/>
      <use x="29.492188" xlink:href="#DejaVuSans-6d"/>
      <use x="126.904297" xlink:href="#DejaVuSans-61"/>
      <use x="188.183594" xlink:href="#DejaVuSans-67"/>
      <use x="251.660156" xlink:href="#DejaVuSans-65"/>
      <use x="313.183594" xlink:href="#DejaVuSans-33"/>
      <use x="376.806641" xlink:href="#DejaVuSans-2e"/>
      <use x="408.59375" xlink:href="#DejaVuSans-6a"/>
      <use x="436.376953" xlink:href="#DejaVuSans-70"/>
      <use x="499.853516" xlink:href="#DejaVuSans-65"/>
      <use x="561.376953" xlink:href="#DejaVuSans-67"/>
     </g>
    </g>
   </g>
  </g>
 </g>
 <defs>
  <clipPath id="p114e88de8f">
   <rect height="266.112" width="357.12" x="57.6" y="41.472"/>
  </clipPath>
 </defs>
</svg>
